<svg width="342" height="74" viewBox="0 0 342 74" fill="none" xmlns="http://www.w3.org/2000/svg">
<path d="M22.5912 73.992C19.1352 73.992 15.8232 73.752 12.6552 73.272C9.53522 72.792 7.11122 72.24 5.38322 71.616V59.808C10.4712 60.72 15.0312 61.176 19.0632 61.176C21.7992 61.176 23.7672 60.744 24.9672 59.88C26.2152 59.064 26.8392 57.504 26.8392 55.2V52.104C25.6392 53.64 24.0792 55.008 22.1592 56.208C20.2872 57.408 18.1272 58.008 15.6792 58.008C10.7832 58.008 7.08722 56.184 4.59122 52.536C2.14322 48.888 0.919219 43.704 0.919219 36.984C0.919219 30.264 2.14322 25.08 4.59122 21.432C7.08722 17.784 10.7832 15.96 15.6792 15.96C18.1272 15.96 20.2872 16.56 22.1592 17.76C24.0792 18.96 25.6392 20.328 26.8392 21.864V16.968H46.5672V28.776H43.3992V54.12C43.3992 61.08 41.6712 66.12 38.2152 69.24C34.7592 72.408 29.5512 73.992 22.5912 73.992ZM22.6632 45.192C24.0552 45.192 25.0872 44.832 25.7592 44.112C26.4792 43.344 26.8392 42.168 26.8392 40.584V33.384C26.8392 31.8 26.4792 30.648 25.7592 29.928C25.0872 29.16 24.0552 28.776 22.6632 28.776C21.2712 28.776 20.2152 29.16 19.4952 29.928C18.8232 30.648 18.4872 31.8 18.4872 33.384V40.584C18.4872 42.168 18.8232 43.344 19.4952 44.112C20.2152 44.832 21.2712 45.192 22.6632 45.192ZM79.3486 15.96C80.3086 15.96 81.2206 16.056 82.0846 16.248C82.9486 16.44 83.6686 16.68 84.2446 16.968V30.72C82.2766 29.904 80.1646 29.496 77.9086 29.496C74.8846 29.496 72.5566 30.288 70.9246 31.872C69.2926 33.456 68.4766 35.808 68.4766 38.928V45.192H74.9566V57H48.7486V45.192H51.9166V28.776H48.7486V16.968H68.4766V22.224C69.8206 20.208 71.3566 18.672 73.0846 17.616C74.8126 16.512 76.9006 15.96 79.3486 15.96ZM128.549 45.192V57H109.541V52.104C108.485 53.64 106.997 55.008 105.077 56.208C103.205 57.408 100.901 58.008 98.1653 58.008C94.5653 58.008 91.7333 57.048 89.6693 55.128C87.6053 53.208 86.5733 50.496 86.5733 46.992C86.5733 37.92 94.2773 33.264 109.685 33.024C109.541 31.392 108.917 30.288 107.813 29.712C106.709 29.088 104.837 28.776 102.197 28.776C100.037 28.776 97.7093 29.016 95.2133 29.496C92.7653 29.928 90.5093 30.528 88.4453 31.296V18.048C90.9893 17.424 93.7493 16.92 96.7253 16.536C99.7013 16.152 102.605 15.96 105.437 15.96C112.589 15.96 117.701 17.256 120.773 19.848C123.845 22.44 125.381 26.448 125.381 31.872V45.192H128.549ZM109.541 40.152C107.381 40.152 105.701 40.44 104.501 41.016C103.349 41.592 102.773 42.552 102.773 43.896C102.773 44.712 103.013 45.384 103.493 45.912C104.021 46.392 104.741 46.632 105.653 46.632C106.901 46.632 107.861 46.104 108.533 45.048C109.205 43.992 109.541 42.504 109.541 40.584V40.152ZM130.582 61.176H133.75V28.776H130.582V16.968H150.31V21.864C151.51 20.328 153.046 18.96 154.918 17.76C156.838 16.56 159.022 15.96 161.47 15.96C166.366 15.96 170.038 17.784 172.486 21.432C174.982 25.08 176.23 30.264 176.23 36.984C176.23 43.704 174.982 48.888 172.486 52.536C170.038 56.184 166.366 58.008 161.47 58.008C159.022 58.008 156.838 57.408 154.918 56.208C153.046 55.008 151.51 53.64 150.31 52.104V61.176H155.278V72.984H130.582V61.176ZM154.486 45.192C155.878 45.192 156.91 44.832 157.582 44.112C158.302 43.344 158.662 42.168 158.662 40.584V33.384C158.662 31.8 158.302 30.648 157.582 29.928C156.91 29.16 155.878 28.776 154.486 28.776C153.094 28.776 152.038 29.16 151.318 29.928C150.646 30.648 150.31 31.8 150.31 33.384V40.584C150.31 42.168 150.646 43.344 151.318 44.112C152.038 44.832 153.094 45.192 154.486 45.192ZM226.069 45.192V57H203.317V45.192H206.341V33.384C206.341 31.8 206.005 30.648 205.333 29.928C204.661 29.16 203.653 28.776 202.309 28.776C199.429 28.776 197.989 30.312 197.989 33.384V45.192H201.013V57H178.261V45.192H181.429V12.792H178.261V0.983996H197.989V22.584C199.765 20.376 201.685 18.72 203.749 17.616C205.813 16.512 208.213 15.96 210.949 15.96C214.933 15.96 217.909 17.208 219.877 19.704C221.893 22.2 222.901 25.632 222.901 30V45.192H226.069ZM231.85 13.008V0.983996H246.538V13.008H231.85ZM228.394 57V45.192H231.562V28.776H228.394V16.968H248.122V45.192H251.29V57H228.394ZM271.068 58.008C265.98 58.008 262.14 56.784 259.548 54.336C257.004 51.84 255.732 47.664 255.732 41.808V28.776H252.564V16.968C254.388 16.968 255.756 16.512 256.668 15.6C257.58 14.64 258.036 13.344 258.036 11.712V8.472H273.3V16.968H283.02V28.776H273.3V40.584C273.3 42.168 273.636 43.344 274.308 44.112C275.028 44.832 276.084 45.192 277.476 45.192C279.3 45.192 281.292 44.976 283.452 44.544V55.848C282.108 56.376 280.284 56.856 277.98 57.288C275.724 57.768 273.42 58.008 271.068 58.008ZM307.225 58.008C300.409 58.008 295.081 56.232 291.241 52.68C287.401 49.08 285.481 43.848 285.481 36.984C285.481 30.12 287.401 24.912 291.241 21.36C295.081 17.76 300.409 15.96 307.225 15.96C313.993 15.96 318.865 17.736 321.841 21.288C324.865 24.792 326.377 29.16 326.377 34.392V39.576H303.049V40.008C303.049 41.784 303.577 43.104 304.633 43.968C305.689 44.784 307.441 45.192 309.889 45.192C312.817 45.192 315.601 44.976 318.241 44.544C320.881 44.112 323.185 43.56 325.153 42.888V54.408C323.473 55.32 321.001 56.16 317.737 56.928C314.521 57.648 311.017 58.008 307.225 58.008ZM311.401 31.656V30.792C311.401 29.16 311.041 27.984 310.321 27.264C309.649 26.544 308.617 26.184 307.225 26.184C305.833 26.184 304.777 26.568 304.057 27.336C303.385 28.056 303.049 29.208 303.049 30.792V31.656H311.401Z" fill="#202021"/>
<path d="M330.103 57V45.192H341.335V57H330.103Z" fill="#FFBD27"/>
</svg>
