<svg width="62" height="59" viewBox="0 0 62 59" fill="none" xmlns="http://www.w3.org/2000/svg">
<path d="M22.5483 58.992C19.0923 58.992 15.7803 58.752 12.6123 58.272C9.49225 57.792 7.06825 57.24 5.34025 56.616V44.808C10.4283 45.72 14.9883 46.176 19.0203 46.176C21.7563 46.176 23.7243 45.744 24.9243 44.88C26.1723 44.064 26.7963 42.504 26.7963 40.2V37.104C25.5963 38.64 24.0363 40.008 22.1163 41.208C20.2443 42.408 18.0843 43.008 15.6363 43.008C10.7403 43.008 7.04425 41.184 4.54825 37.536C2.10025 33.888 0.87625 28.704 0.87625 21.984C0.87625 15.264 2.10025 10.08 4.54825 6.432C7.04425 2.784 10.7403 0.959996 15.6363 0.959996C18.0843 0.959996 20.2443 1.56 22.1163 2.76C24.0363 3.96 25.5963 5.328 26.7963 6.864V1.968H46.5243V13.776H43.3563V39.12C43.3563 46.08 41.6283 51.12 38.1722 54.24C34.7163 57.408 29.5083 58.992 22.5483 58.992ZM22.6203 30.192C24.0123 30.192 25.0443 29.832 25.7163 29.112C26.4363 28.344 26.7963 27.168 26.7963 25.584V18.384C26.7963 16.8 26.4363 15.648 25.7163 14.928C25.0443 14.16 24.0123 13.776 22.6203 13.776C21.2283 13.776 20.1723 14.16 19.4523 14.928C18.7803 15.648 18.4443 16.8 18.4443 18.384V25.584C18.4443 27.168 18.7803 28.344 19.4523 29.112C20.1723 29.832 21.2283 30.192 22.6203 30.192Z" fill="#282828"/>
<path d="M50.1456 42V30.192H61.3776V42H50.1456Z" fill="#FFBD27"/>
</svg>
