<svg id="Layer_1" data-name="Layer 1" xmlns="http://www.w3.org/2000/svg" xmlns:xlink="http://www.w3.org/1999/xlink" viewBox="0 0 407.86 340.5"><defs><linearGradient id="linear-gradient" x1="265.81" y1="189.49" x2="265.81" y2="312.81" gradientUnits="userSpaceOnUse"><stop offset="0" stop-opacity="0"/><stop offset="0.91" stop-opacity="0.8"/><stop offset="1"/></linearGradient><linearGradient id="linear-gradient-2" x1="309.37" y1="236.95" x2="309.09" y2="259.76" xlink:href="#linear-gradient"/><linearGradient id="linear-gradient-3" x1="291.74" y1="313.48" x2="315.12" y2="313.48" gradientUnits="userSpaceOnUse"><stop offset="0" stop-color="#ecc4d7"/><stop offset="0.42" stop-color="#efd4d1"/><stop offset="1" stop-color="#f2eac9"/></linearGradient><linearGradient id="linear-gradient-4" x1="312.4" y1="317.79" x2="325.56" y2="317.79" xlink:href="#linear-gradient-3"/><linearGradient id="linear-gradient-5" x1="292.84" y1="255.02" x2="315.43" y2="255.02" xlink:href="#linear-gradient-3"/><linearGradient id="linear-gradient-6" x1="84.43" y1="305.67" x2="70.54" y2="287.28" xlink:href="#linear-gradient"/><linearGradient id="linear-gradient-7" x1="80.69" y1="327.55" x2="82.4" y2="316.01" xlink:href="#linear-gradient"/><linearGradient id="linear-gradient-8" x1="336.83" y1="294.35" x2="322.94" y2="275.96" xlink:href="#linear-gradient"/><linearGradient id="linear-gradient-9" x1="333.1" y1="316.23" x2="334.81" y2="304.69" xlink:href="#linear-gradient"/><linearGradient id="linear-gradient-10" x1="248.83" y1="339.18" x2="257.57" y2="339.18" xlink:href="#linear-gradient-3"/><linearGradient id="linear-gradient-11" x1="274.5" y1="338.36" x2="282.02" y2="338.36" xlink:href="#linear-gradient-3"/><linearGradient id="linear-gradient-12" x1="243.87" y1="334.81" x2="248.52" y2="353.54" xlink:href="#linear-gradient"/><linearGradient id="linear-gradient-13" x1="270.78" y1="334.77" x2="280.78" y2="356.87" xlink:href="#linear-gradient"/><linearGradient id="linear-gradient-14" x1="221.14" y1="200.11" x2="399.64" y2="173.08" xlink:href="#linear-gradient"/><linearGradient id="linear-gradient-15" x1="111.89" y1="309.56" x2="121.92" y2="309.56" xlink:href="#linear-gradient-3"/><linearGradient id="linear-gradient-16" x1="144.93" y1="308.64" x2="153.19" y2="308.64" xlink:href="#linear-gradient-3"/><linearGradient id="linear-gradient-17" x1="141.54" y1="346.72" x2="140.42" y2="359.02" xlink:href="#linear-gradient"/><linearGradient id="linear-gradient-18" x1="175.43" y1="342.05" x2="178.32" y2="353.66" xlink:href="#linear-gradient"/><linearGradient id="linear-gradient-19" x1="143.19" y1="235.87" x2="121.53" y2="239.42" xlink:href="#linear-gradient"/><linearGradient id="linear-gradient-20" x1="150.04" y1="237.43" x2="119.06" y2="265.77" xlink:href="#linear-gradient"/><linearGradient id="linear-gradient-21" x1="329.71" y1="207.07" x2="342.39" y2="207.07" xlink:href="#linear-gradient-3"/><linearGradient id="linear-gradient-22" x1="217.72" y1="214.47" x2="216.03" y2="262.33" xlink:href="#linear-gradient"/><linearGradient id="linear-gradient-23" x1="217.02" y1="229.74" x2="217.19" y2="243.04" xlink:href="#linear-gradient"/><linearGradient id="linear-gradient-24" x1="279.83" y1="183.99" x2="306.29" y2="163.34" xlink:href="#linear-gradient"/><linearGradient id="linear-gradient-25" x1="187.02" y1="142.95" x2="201.59" y2="142.95" xlink:href="#linear-gradient-3"/><linearGradient id="linear-gradient-26" x1="257.04" y1="204.75" x2="274.2" y2="204.75" xlink:href="#linear-gradient-3"/><linearGradient id="linear-gradient-27" x1="130.89" y1="241.11" x2="61.16" y2="245.86" xlink:href="#linear-gradient"/><linearGradient id="linear-gradient-28" x1="125.77" y1="195.82" x2="110.87" y2="207.02" xlink:href="#linear-gradient-3"/><linearGradient id="linear-gradient-29" x1="165.48" y1="255.26" x2="186.42" y2="255.26" xlink:href="#linear-gradient-3"/><linearGradient id="linear-gradient-30" x1="113.6" y1="236.82" x2="62.2" y2="235.14" xlink:href="#linear-gradient"/><linearGradient id="linear-gradient-31" x1="122.29" y1="263.82" x2="142.16" y2="263.82" xlink:href="#linear-gradient-3"/><linearGradient id="linear-gradient-32" x1="217.23" y1="325.14" x2="86.02" y2="298.68" xlink:href="#linear-gradient"/><linearGradient id="linear-gradient-33" x1="336.07" y1="174.36" x2="328.19" y2="195.76" xlink:href="#linear-gradient-3"/><linearGradient id="linear-gradient-34" x1="355.1" y1="237.87" x2="311.74" y2="253.07" xlink:href="#linear-gradient"/><linearGradient id="linear-gradient-35" x1="317.12" y1="174.36" x2="317.77" y2="183.7" xlink:href="#linear-gradient"/><linearGradient id="linear-gradient-36" x1="408.21" y1="288.98" x2="314.17" y2="287.85" xlink:href="#linear-gradient"/><linearGradient id="linear-gradient-37" x1="287.69" y1="333.35" x2="283.38" y2="347.62" xlink:href="#linear-gradient"/><linearGradient id="linear-gradient-38" x1="310.82" y1="342.12" x2="310.07" y2="353.57" xlink:href="#linear-gradient"/><linearGradient id="linear-gradient-39" x1="118.24" y1="175.85" x2="128.09" y2="186.41" xlink:href="#linear-gradient-3"/><linearGradient id="linear-gradient-40" x1="259.5" y1="157.44" x2="263.3" y2="164.91" xlink:href="#linear-gradient-3"/><linearGradient id="linear-gradient-41" x1="267.23" y1="141.33" x2="272.44" y2="141.33" xlink:href="#linear-gradient-3"/><linearGradient id="linear-gradient-42" x1="257.41" y1="130.14" x2="248.96" y2="154.73" xlink:href="#linear-gradient-3"/><linearGradient id="linear-gradient-43" x1="119.15" y1="204.93" x2="111.97" y2="206.27" xlink:href="#linear-gradient"/><linearGradient id="linear-gradient-44" x1="156.66" y1="298.85" x2="130.38" y2="315.36" xlink:href="#linear-gradient"/><linearGradient id="linear-gradient-45" x1="139.99" y1="316.87" x2="142.24" y2="218.33" xlink:href="#linear-gradient"/><linearGradient id="linear-gradient-46" x1="289.56" y1="302.61" x2="291.81" y2="227.15" xlink:href="#linear-gradient"/><linearGradient id="linear-gradient-47" x1="292.64" y1="239.46" x2="284.12" y2="227.21" xlink:href="#linear-gradient-3"/><linearGradient id="linear-gradient-48" x1="309.81" y1="178.44" x2="313.22" y2="178.44" xlink:href="#linear-gradient"/><linearGradient id="linear-gradient-49" x1="170.08" y1="246.51" x2="166.56" y2="260.45" xlink:href="#linear-gradient"/></defs><title>66. Group Presentation</title><path d="M241.82,76.69s36.64-4.45,50.53,30.53,32.52,41.9,54.17,48.58,54.35,45.7,39.68,116.83-3.61,70.66-3.61,70.66L89.11,361.07s-50.73-33.33-22.67-133.7c12.08-43.21,12.87-69.51,9.84-85.45-5.94-31.26,6.61-63.31,33.07-81C139.1,41.08,183,33.23,241.82,76.69Z" transform="translate(-19.11 -34.56)" fill="#282828" opacity="0.27"/><path d="M247.27,223.67s-.64,6.32-.64,12.81v100.3h11.8l6.72-80.53,7.79,80.53h11.32s1.64-91.15,0-99.41S282,221.69,282,221.69Z" transform="translate(-19.11 -34.56)" fill="#282828"/><path d="M247.57,223.41a91.86,91.86,0,0,0-.94,12.51v100.3h11.8l6.72-80.53,7.79,80.53h11.32s1.64-91.15,0-99.41S282,221.13,282,221.13Z" transform="translate(-19.11 -34.56)" fill="url(#linear-gradient)"/><path d="M328.61,216l-11,24.08-24.67-11.62L287.09,238l26.32,17.22s14.35,7.66,17.33-11.27S328.61,216,328.61,216Z" transform="translate(-19.11 -34.56)" fill="#282828"/><path d="M328.61,216l-11,24.08-24.67-11.62L287.09,238l26.32,17.22s14.35,7.66,17.33-11.27S328.61,216,328.61,216Z" transform="translate(-19.11 -34.56)" fill="url(#linear-gradient-2)"/><path d="M303.82,291.51a76,76,0,0,1,11.3,4.82q-7.51,19.2-15.81,38.09a1.44,1.44,0,0,1-2,1c-2.21-.34-4.85-1.06-5.44-3.22a5.72,5.72,0,0,1,0-2.33C292.43,326.06,303.13,291.28,303.82,291.51Z" transform="translate(-19.11 -34.56)" fill="url(#linear-gradient-3)"/><path d="M313.36,295.74a78.31,78.31,0,0,1,12.2,1.47q-1.85,20.54-4.53,41a1.82,1.82,0,0,1-.27.89,2,2,0,0,1-1.39.59c-2.22.28-5,.34-6.12-1.57a5.62,5.62,0,0,1-.64-2.25C312.09,332.1,312.63,295.72,313.36,295.74Z" transform="translate(-19.11 -34.56)" fill="url(#linear-gradient-4)"/><path d="M309.54,250.13c-1.75-.29-11.24-2-12.77-1.13-2.06,1.22-5.2,11.41-3.39,11.67a92.35,92.35,0,0,0,21,0c.44-.05,1-.23,1-.68a1,1,0,0,0-.32-.63C310.25,253.74,317.25,251.41,309.54,250.13Z" transform="translate(-19.11 -34.56)" fill="url(#linear-gradient-5)"/><path d="M73.72,361.54c-18.42,2.58-37,5.2-54.61,11.12,10.24,3.21,21.24,2.47,32,1.86,122.63-7.07,247.14,5,367.41-20,3.68-.76,8.16-2.41,8.48-6.16.44-5-6.54-6.68-11.58-6.46l-92.1,3.93,5.77-4q-50.13-.24-100.25,1.47c-11.29.38-20.68,3.79-31.48,5.67-12.95,2.25-27.24,1.18-40.4,2.32C129.07,353.77,101.39,357.65,73.72,361.54Z" transform="translate(-19.11 -34.56)" fill="#282828" opacity="0.27"/><rect x="61.16" y="266.53" width="42.02" height="14.45" rx="6.23" fill="#282828"/><rect x="77.67" y="280.99" width="7.32" height="41.15" fill="#282828"/><rect x="77.67" y="280.99" width="7.32" height="41.15" fill="url(#linear-gradient-6)"/><rect x="70.07" y="320.18" width="22.51" height="6.24" rx="3.12" fill="#282828"/><rect x="70.07" y="320.18" width="22.51" height="6.24" rx="3.12" fill="url(#linear-gradient-7)"/><rect x="313.56" y="255.21" width="42.02" height="14.45" rx="6.23" fill="#282828"/><rect x="330.07" y="269.67" width="7.32" height="41.15" fill="#282828"/><rect x="330.07" y="269.67" width="7.32" height="41.15" fill="url(#linear-gradient-8)"/><rect x="322.47" y="308.86" width="22.51" height="6.24" rx="3.12" fill="#282828"/><rect x="322.47" y="308.86" width="22.51" height="6.24" rx="3.12" fill="url(#linear-gradient-9)"/><path d="M249.55,343.69a2.75,2.75,0,0,0,.72.83,2.28,2.28,0,0,0,1.64.23c1.52-.26,2.72-.06,3.6-1.32s1.49-4,1.87-5.45c.65-2.57-.4-3.69-2.86-4.15-1.64-.3-3.43-.54-4.93.37C249.59,334.2,247.92,341.13,249.55,343.69Z" transform="translate(-19.11 -34.56)" fill="url(#linear-gradient-10)"/><path d="M274.74,341.94a1.14,1.14,0,0,0,1.29,1.44c1.67.06,3.35.07,5,0a1.2,1.2,0,0,0,.5-.09c.41-.19.46-.73.46-1.18l0-8a1.1,1.1,0,0,0-.08-.51c-.21-.38-.75-.38-1.19-.33-1.49.2-5.48,0-6.06,1.41-.35.86,0,2.68,0,3.61C274.66,339.53,274.65,340.74,274.74,341.94Z" transform="translate(-19.11 -34.56)" fill="url(#linear-gradient-11)"/><path d="M247.77,341.12a20.38,20.38,0,0,0-2.23.9l-7.67,3.49a3.89,3.89,0,0,0-1.9,1.41,2.8,2.8,0,0,0,.26,2.73,6.56,6.56,0,0,0,3.8,2.74,16.43,16.43,0,0,0,4.74.52,76.62,76.62,0,0,0,9.93-.61,2.33,2.33,0,0,0,1.32-.45,2.28,2.28,0,0,0,.54-.93,16.54,16.54,0,0,0,.89-7.48,4.14,4.14,0,0,0-.58-1.88c-.81-1.18-2.84-.87-4.09-.93A14.35,14.35,0,0,0,247.77,341.12Z" transform="translate(-19.11 -34.56)" fill="#282828"/><path d="M247.77,341.12a20.38,20.38,0,0,0-2.23.9l-7.67,3.49a3.89,3.89,0,0,0-1.9,1.41,2.8,2.8,0,0,0,.26,2.73,6.56,6.56,0,0,0,3.8,2.74,16.43,16.43,0,0,0,4.74.52,76.62,76.62,0,0,0,9.93-.61,2.33,2.33,0,0,0,1.32-.45,2.28,2.28,0,0,0,.54-.93,16.54,16.54,0,0,0,.89-7.48,4.14,4.14,0,0,0-.58-1.88c-.81-1.18-2.84-.87-4.09-.93A14.35,14.35,0,0,0,247.77,341.12Z" transform="translate(-19.11 -34.56)" fill="url(#linear-gradient-12)"/><path d="M275,342.11a6.45,6.45,0,0,0-4.81,2.61,7.69,7.69,0,0,0-.81,4.19c0,1.09.07,2.17.12,3.26a2.28,2.28,0,0,0,.53,1.64,2.18,2.18,0,0,0,1.53.38,37.55,37.55,0,0,0,13.17-2.54.77.77,0,0,0,.43-.3.81.81,0,0,0,.06-.41c-.06-1.81-.19-3.62-.4-5.42a5.05,5.05,0,0,0-.41-1.67C282.85,340.76,277.64,341.76,275,342.11Z" transform="translate(-19.11 -34.56)" fill="#282828"/><path d="M275,342.11a6.45,6.45,0,0,0-4.81,2.61,7.69,7.69,0,0,0-.81,4.19c0,1.09.07,2.17.12,3.26a2.28,2.28,0,0,0,.53,1.64,2.18,2.18,0,0,0,1.53.38,37.55,37.55,0,0,0,13.17-2.54.77.77,0,0,0,.43-.3.81.81,0,0,0,.06-.41c-.06-1.81-.19-3.62-.4-5.42a5.05,5.05,0,0,0-.41-1.67C282.85,340.76,277.64,341.76,275,342.11Z" transform="translate(-19.11 -34.56)" fill="url(#linear-gradient-13)"/><rect x="21.03" width="204.88" height="154.43" fill="#282828" opacity="0.4"/><path d="M223,173.33c-10.64-7.66-10.79-16.74-21.22-24.68a46.28,46.28,0,0,0-7.38,6.17,3.19,3.19,0,0,0-1,1.57,3.33,3.33,0,0,0,.51,2.06A128.85,128.85,0,0,0,210,183a18.85,18.85,0,0,0,4.57,4.3c2.82,1.69,6.29,1.92,9.57,1.64a66.66,66.66,0,0,0,25.7-7.5c.69-.35,1.74-2.62,2.17-3.26,1.41-2.1,8-15.15,5.22-16.08S223.92,174,223,173.33Z" transform="translate(-19.11 -34.56)" fill="#282828"/><path d="M200.76,149.39l1.06-.74a12.26,12.26,0,0,1-.38,3.66c-.47,1-1.74,4.68-8,4.63C193.42,156.94,192.61,155.25,200.76,149.39Z" transform="translate(-19.11 -34.56)"/><rect x="32.83" y="97.89" width="180.83" height="5.92" rx="2.96" fill="#282828" opacity="0.4"/><rect x="32.83" y="109.16" width="180.83" height="5.92" rx="2.96" fill="#282828" opacity="0.4"/><path d="M247.38,167.49c2.1-3.26,6.07-4.79,9.89-5.44s5-2.75,12-2.76c6.19,0,7.11,3.83,9.08,7.42s2.48,7.77,2.89,11.85q1.84,18.16,2,36.46c0,2.3,0,4.73-1.24,6.67-1.67,2.65-5,3.63-8.07,4.21a78.66,78.66,0,0,1-16.42,1.36,17.68,17.68,0,0,1-6.86-1.18c-3.38-1.52-5.67-4.86-6.77-8.4a37,37,0,0,1-1.14-11q0-13.48.92-26.95A27,27,0,0,1,247.38,167.49Z" transform="translate(-19.11 -34.56)" fill="#282828"/><path d="M247.38,167.49c2.1-3.26,6.07-4.79,9.89-5.44s5-2.75,12-2.76c6.19,0,7.11,3.83,9.08,7.42s2.48,7.77,2.89,11.85q1.84,18.16,2,36.46c0,2.3,0,4.73-1.24,6.67-1.67,2.65-5,3.63-8.07,4.21a78.66,78.66,0,0,1-16.42,1.36,17.68,17.68,0,0,1-6.86-1.18c-3.38-1.52-5.67-4.86-6.77-8.4a37,37,0,0,1-1.14-11q0-13.48.92-26.95A27,27,0,0,1,247.38,167.49Z" transform="translate(-19.11 -34.56)" fill="url(#linear-gradient-14)"/><polygon points="121.92 304.63 119.41 315.06 111.89 314.02 111.89 304.07 121.92 304.63" fill="url(#linear-gradient-15)"/><path d="M131,348.58l-3.39,8.12L142.16,361h11.11s-1.18-5.76-5.31-6.19-9.44-5.16-9.44-5.16Z" transform="translate(-19.11 -34.56)" fill="#282828"/><polygon points="144.93 303.33 146.84 315.06 153.19 313.14 153.19 302.23 144.93 303.33" fill="url(#linear-gradient-16)"/><path d="M166,349.62v8.85l18.7-3.69,6.23-5.16s-2.12-5.46-7.57-3.54-9.46,2.21-10.24,1.62-2.33,0-2.33,0Z" transform="translate(-19.11 -34.56)" fill="#282828"/><path d="M131,348.58l-3.39,8.12L142.16,361h11.11s-1.18-5.76-5.31-6.19-9.44-5.16-9.44-5.16Z" transform="translate(-19.11 -34.56)" fill="url(#linear-gradient-17)"/><path d="M166,349.62v8.85l18.7-3.69,6.23-5.16s-2.12-5.46-7.57-3.54-9.46,2.21-10.24,1.62-2.33,0-2.33,0Z" transform="translate(-19.11 -34.56)" fill="url(#linear-gradient-18)"/><path d="M129.93,211.56l17.58,33.77,24,4.69.67,7.59-25.75,3.06s-3.28,1.39-9.23-6.19c-3.46-4.4-8.26-13.28-8.26-13.28Z" transform="translate(-19.11 -34.56)" fill="#282828"/><path d="M172.17,257.61l-25.75,3.06s-3.28,1.39-9.23-6.19c-3.46-4.4-8.26-13.28-8.26-13.28l1-29.64,2.31,4.44,15.27,29.33,24,4.69.38,5.13Z" transform="translate(-19.11 -34.56)" fill="url(#linear-gradient-19)"/><path d="M171.88,255.15h-22.8s-3.28,1.39-9.24-6.19c-3.45-4.4-8.26-13.28-8.26-13.28l.66-19.68,15.27,29.33,24,4.69Z" transform="translate(-19.11 -34.56)" fill="url(#linear-gradient-20)"/><path d="M330.74,212.73c-.07.33,1.35-.58,1.59-.35a1.45,1.45,0,0,0,.76.32l2,.42a8.16,8.16,0,0,0,4,.15,5.13,5.13,0,0,0,3.27-4.72,9.94,9.94,0,0,0-1.87-5.71A4.66,4.66,0,0,0,338.7,201a5.15,5.15,0,0,0-2.14-.34c-2,0-7.79.3-6.72,2.53A15.65,15.65,0,0,1,330.74,212.73Z" transform="translate(-19.11 -34.56)" fill="url(#linear-gradient-21)"/><rect x="32.83" y="17.85" width="180.83" height="70.8" fill="#282828" opacity="0.4"/><rect x="157.32" y="35.1" width="47.94" height="2.51" fill="#282828" opacity="0.8"/><rect x="157.32" y="51.99" width="47.94" height="2.51" fill="#282828" opacity="0.8"/><rect x="157.32" y="56.2" width="47.94" height="2.51" fill="#282828" opacity="0.8"/><rect x="157.32" y="39.53" width="34.37" height="2.51" fill="#282828" opacity="0.8"/><rect x="46.69" y="31.27" width="3.83" height="41.3" fill="#fff"/><rect x="54.21" y="45.58" width="3.83" height="26.99" fill="#fff"/><rect x="61.59" y="42.04" width="3.83" height="30.53" fill="#fff"/><rect x="69.11" y="46.3" width="3.83" height="26.27" fill="#fff"/><g opacity="0.8"><path d="M92.05,92.2a1,1,0,0,1-.62-.22l-8.86-7-6.45,5.54L65,76a1,1,0,0,1,1.59-1.22l9.83,12.88,6.09-5.23,10.16,8a1,1,0,0,1-.62,1.79Z" transform="translate(-19.11 -34.56)" fill="#282828" opacity="0.8"/></g><path d="M167.72,88.45a24.58,24.58,0,1,1-24.57-24.58V88.45Z" transform="translate(-19.11 -34.56)" fill="#282828" opacity="0.8"/><path d="M171,84.46H146.42V59.88A24.57,24.57,0,0,1,171,84.46Z" transform="translate(-19.11 -34.56)" fill="#282828" opacity="0.8"/><rect x="1.93" y="126.07" width="80.27" height="72.08" fill="#282828" opacity="0.4"/><rect x="127.31" y="226.12" width="179.57" height="11.86" fill="#282828"/><rect x="127.31" y="226.12" width="179.57" height="11.86" fill="url(#linear-gradient-22)"/><rect x="127.31" y="233.64" width="179.57" height="4.34" fill="url(#linear-gradient-23)"/><path d="M165.8,213.11" transform="translate(-19.11 -34.56)" fill="none" stroke="#000" stroke-miterlimit="10" stroke-width="0.61"/><path d="M274.51,160.82c7.46,7.27,18.59,16.57,23.4,25.82,1.08,2.08,2,4.37,1.73,6.69-.48,3.77-4,6.32-7.36,8.11a133.44,133.44,0,0,1-16.24,6.9,2.31,2.31,0,0,1-1.58.19,2.26,2.26,0,0,1-1-1.1,91.16,91.16,0,0,1-4.39-8.93,1.78,1.78,0,0,1-.21-1.12,1.74,1.74,0,0,1,.88-.91c4.37-2.57,10-3.27,13.25-7.2a22.61,22.61,0,0,1-12.09-13.22C268.59,169.25,268.63,163.51,274.51,160.82Z" transform="translate(-19.11 -34.56)" fill="#282828"/><path d="M274.51,160.82c7.46,7.27,18.59,16.57,23.4,25.82,1.08,2.08,2,4.37,1.73,6.69-.48,3.77-4,6.32-7.36,8.11a133.44,133.44,0,0,1-16.24,6.9,2.31,2.31,0,0,1-1.58.19,2.26,2.26,0,0,1-1-1.1,91.16,91.16,0,0,1-4.39-8.93,1.78,1.78,0,0,1-.21-1.12,1.74,1.74,0,0,1,.88-.91c4.37-2.57,10-3.27,13.25-7.2a22.61,22.61,0,0,1-12.09-13.22C268.59,169.25,268.63,163.51,274.51,160.82Z" transform="translate(-19.11 -34.56)" fill="url(#linear-gradient-24)"/><path d="M268.85,197.38s3.27.69,4.33,3.29,1.28,7.86,1.28,7.86-1.89.15-2.29-1.46S267.35,200.07,268.85,197.38Z" transform="translate(-19.11 -34.56)"/><path d="M200.4,154.21a3.42,3.42,0,0,1-2.4,1.49c-1.49.11-2.72-1.07-3.74-2.16-2.23-2.4-4.53-4.88-5.69-7.95a23.13,23.13,0,0,1-.95-3.47,16.34,16.34,0,0,1-.49-5.81c.28-1.93,2.55-6.11,5.63-6.11.18,0,2.53,5.94,2.72,6.22l2.23,3.1a9,9,0,0,0,2.16-2.88,4.08,4.08,0,0,1,.73,2.89c-.07,1-.37,2-.54,3a13.12,13.12,0,0,0,.44,6.22c.26.83,1.05,1.86,1.09,2.72A5.58,5.58,0,0,1,200.4,154.21Z" transform="translate(-19.11 -34.56)" fill="url(#linear-gradient-25)"/><path d="M265.3,198.67a2.46,2.46,0,0,0-1,0,1,1,0,0,0-.71.65c-.15.55.34,1,.73,1.45a.51.51,0,0,1,.17.29c0,.24-.27.37-.5.43l-5.54,1.41a1,1,0,0,0-.53.25.88.88,0,0,0-.18.39,3.72,3.72,0,0,0-.07,1.66.85.85,0,0,1,0,.7c-.08.12-.23.17-.33.27a1.14,1.14,0,0,0-.12,1.26,5.32,5.32,0,0,0,5.05,3.41,13.9,13.9,0,0,0,3.4-.8,18.59,18.59,0,0,1,2.46-.54c1.23-.19,2.61-.32,3.45-1.25s2.68-2.28,2.67-2.84c0-.87-.82-5.14-1.52-5.66a18.09,18.09,0,0,1-3.94-.32A15.07,15.07,0,0,0,265.3,198.67Z" transform="translate(-19.11 -34.56)" fill="url(#linear-gradient-26)"/><path d="M112.08,201.66c-2.67,3.22-9.93,12-10.83,16.05q-4.43,20-8.83,40a39.77,39.77,0,0,0-1.31,9.5c.24,10.42,9.89,19.7,20.31,19.53a17.08,17.08,0,0,0,9.79-3.12c3.63-2.67,5.82-6.85,7.56-11,2.4-5.72-1-9.8.51-15.8,2.54-10.13,5.95-28.82,3-38.85C125.57,194.9,112.08,201.66,112.08,201.66Z" transform="translate(-19.11 -34.56)" fill="#282828"/><path d="M112.08,201.66c-2.67,3.22-9.93,12-10.83,16.05q-4.43,20-8.83,40a39.77,39.77,0,0,0-1.31,9.5c.24,10.42,9.89,19.7,20.31,19.53a17.08,17.08,0,0,0,9.79-3.12c3.63-2.67,5.82-6.85,7.56-11,2.4-5.72-1-9.8.51-15.8,2.54-10.13,6.16-26.19,3.6-36.32S122.88,188.59,112.08,201.66Z" transform="translate(-19.11 -34.56)" fill="url(#linear-gradient-27)"/><path d="M127.38,195.74c-.74,3.41-2.37,8.16-1.11,12.68.51,1.82-10.7-2.86-12.2-5.4-1.81-3.05,3.76-3.35-.19-10.7-1.68-3.13,9.48,3.47,13,4" transform="translate(-19.11 -34.56)" fill="url(#linear-gradient-28)"/><path d="M179.22,250.26a7.35,7.35,0,0,1,3.61.46,6,6,0,0,1,2.41,2.71,8.52,8.52,0,0,1,1,5.56,1.72,1.72,0,0,1-.45.95,2,2,0,0,1-1.48.34l-5.77-.18a7.57,7.57,0,0,1-4.08-.9c-.79-.53-1.41-1.37-2.34-1.59a4.54,4.54,0,0,0-1.83.09,11.57,11.57,0,0,1-3.62,0,1.39,1.39,0,0,1-.84-.35,1.41,1.41,0,0,1-.27-.77c-.35-2.62-.16-5.1,2.56-5.81C171.49,249.89,175.78,250.41,179.22,250.26Z" transform="translate(-19.11 -34.56)" fill="url(#linear-gradient-29)"/><path d="M105.31,210.33s-16.06,24.46-15.62,31.1,33.7,23.65,33.7,23.65l5.07-7.68-17.77-19.29,8.91-18.37S120.15,203,105.31,210.33Z" transform="translate(-19.11 -34.56)" fill="#282828"/><path d="M125.38,262.49l-2,2.59s-33.25-17-33.7-23.65,15.62-31.1,15.62-31.1c4.16-2.05,6-1.72,8.21-1-1,1.68-14.76,24.07-14.34,30.45C99.49,244.58,116,256.24,125.38,262.49Z" transform="translate(-19.11 -34.56)" fill="url(#linear-gradient-30)"/><path d="M125.09,257.77a4.38,4.38,0,0,0-2.74,4.66,6.65,6.65,0,0,0,2.07,3.22,28.31,28.31,0,0,0,4.11,3.38,6.74,6.74,0,0,0,2.27,1.1c2.9.66,5.5-2,8.45-2.35a6,6,0,0,0,1.59-.25,2.47,2.47,0,0,0,1.24-2.87,4.7,4.7,0,0,0-2.1-2.59,8.62,8.62,0,0,0-3.82-1.36,14,14,0,0,1-3.38-.41c-1.33-.48-1.85-1.77-3.13-2.33A6,6,0,0,0,125.09,257.77Z" transform="translate(-19.11 -34.56)" fill="url(#linear-gradient-31)"/><path d="M92.05,272.54S85.25,290,89.68,297s39.25,13.22,39.25,13.22l-.55,31.65,14.51,1.32L147,304.81s.4-4.17-5.75-7.12c0,0,10.44,3.1,12.8,10.77s8.74,33.42,8.74,33.42l11.4-3.26s-1.9-41.22-8.66-49.18-36.71-16.8-36.71-16.8Z" transform="translate(-19.11 -34.56)" fill="#282828"/><path d="M174.14,338.62l-11.4,3.26-.11-.46c0-.15-.09-.33-.14-.55a.23.23,0,0,0,0-.11c-.06-.25-.13-.55-.22-.89s-.2-.78-.31-1.23c-1.79-7.16-6.09-24.19-7.93-30.18-2-6.6-10.05-9.82-12.24-10.58l-.11,0-.33-.11-.09,0c6.12,2.95,5.72,7.11,5.72,7.11l-4.06,38.39-14.51-1.32.55-31.65S94.12,304,89.68,297s2.37-24.47,2.37-24.47l24,.06,12.77,0h0c.91.27,30,8.94,36.69,16.79S174.14,338.62,174.14,338.62Z" transform="translate(-19.11 -34.56)" fill="url(#linear-gradient-32)"/><path d="M318.72,187.16a3.69,3.69,0,0,0-1.1,1.54c-.24,1.05.75,1.93,1.35,2.84,1.52,2.32.56,5.58,1.83,8.05s4.35,3.39,7.09,4a13.48,13.48,0,0,0,4.18.52c4.3-.38,7.07-4.62,9-8.48,1.33-2.65,2.61-5.41,2.8-8.37.21-3.23-.89-6.4-2.13-9.39a10.49,10.49,0,0,0-2.83-4.39,9.5,9.5,0,0,0-5.59-1.56c-3.3-.12-6.88.35-9.26,2.63C320.5,178,321.85,183.78,318.72,187.16Z" transform="translate(-19.11 -34.56)" fill="url(#linear-gradient-33)"/><path d="M331.7,211.49c-4,3.3-4.12,8.51-4,13.16.34,12.62.77,25.59,6.8,37.2,1.92,3.71,4.64,7.42,9,9.24a23,23,0,0,0,8.34,1.44c6.2.11,12.81-1.17,17-4.91,5.75-5.07,5.47-13,3.77-19.75C370.05,237.37,351.89,194.74,331.7,211.49Z" transform="translate(-19.11 -34.56)" fill="#282828"/><path d="M331.7,211.49c-4,3.3-4.12,8.51-4,13.16.34,12.62.77,25.59,6.8,37.2,1.92,3.71,4.64,7.42,9,9.24a23,23,0,0,0,8.34,1.44c6.2.11,12.81-1.17,17-4.91,5.75-5.07,5.47-13,3.77-19.75C370.05,237.37,351.89,194.74,331.7,211.49Z" transform="translate(-19.11 -34.56)" fill="url(#linear-gradient-34)"/><polygon points="316.32 172.51 310.22 175.79 309.81 180.65 313.22 177.82 316.94 180.1 324.8 173.36 323.64 170.2 316.32 172.51" fill="#282828"/><polygon points="316.32 172.51 310.22 175.79 309.81 180.65 313.22 177.82 316.94 180.1 324.8 173.36 323.64 170.2 316.32 172.51" fill="url(#linear-gradient-35)"/><path d="M333.73,225a12.34,12.34,0,0,1,10-12.07c3.31-.58,6.67-.21,8.76,2.57,3.62,4.82-2.16,23.27-6.2,34.53a15.45,15.45,0,0,1-13,10.13c-2.66.27-5.35.47-7.33.47-5.61,0-17.56-.26-17.56-.26L309.2,247s17.74,1,21.54-3C333.06,241.57,333.63,232.09,333.73,225Z" transform="translate(-19.11 -34.56)" fill="#282828"/><path d="M363.09,293.05c-7.65,6.51-19.13,3.71-29.13,4.61-7.24.66-2.33,7.06-8,11.64-5-7.1-16.37-10.32-23.16-15.74,4.57-11.23,14.45-20.49,26.59-22.9,6-1.19,12.12-1.2,18.2-1.34,3.38-.08,6.76-.13,10.13-.45,2.27-.22,7.18-2.16,9.21-1.6C374.24,269.28,367.75,289.09,363.09,293.05Z" transform="translate(-19.11 -34.56)" fill="#282828"/><path d="M363.09,293.05c-7.65,6.51-19.13,3.71-29.13,4.61-7.24.66-2.33,7.06-8,11.64-5-7.1-16.37-10.32-23.16-15.74,4.57-11.23,14.45-20.49,26.59-22.9,6-1.19,12.12-1.2,18.2-1.34,3.38-.08,6.76-.13,10.13-.45,2.27-.22,7.18-2.16,9.21-1.6C374.24,269.28,367.75,289.09,363.09,293.05Z" transform="translate(-19.11 -34.56)" fill="url(#linear-gradient-36)"/><path d="M289.59,334.53a13.33,13.33,0,0,1,.79-2.91,8,8,0,0,1,1.57-2.28,37.82,37.82,0,0,0,7.17,3.51c.26.1.56.23.63.48a.74.74,0,0,1-.08.46c-.85,2.2-1.8,4.35-2.84,6.47-.11.23-.26.48-.51.53a.89.89,0,0,1-.53-.11c-1.78-.76-4.09-1.44-5.64-2.56S289.27,336.16,289.59,334.53Z" transform="translate(-19.11 -34.56)"/><path d="M279.91,335a8.31,8.31,0,0,0-2-.54,3.88,3.88,0,0,0-3.23,1.68,11.46,11.46,0,0,0-1.58,3.44,3.27,3.27,0,0,0-.23,1.87,3.34,3.34,0,0,0,1.66,1.74,127.26,127.26,0,0,0,11.68,6.41,13.47,13.47,0,0,0,6.31,1.78,2.11,2.11,0,0,0,1.18-.34,2.65,2.65,0,0,0,.58-.75,36.9,36.9,0,0,0,2.94-6.73,2.51,2.51,0,0,0-.81-3.31c-2-1.92-4.47-3.84-7.28-4.32C286.11,335.4,282.91,336,279.91,335Z" transform="translate(-19.11 -34.56)" fill="#282828"/><path d="M312.55,341.24a14.35,14.35,0,0,1-.11-3,7.85,7.85,0,0,1,.78-2.59,35,35,0,0,0,7.38,1.49c.27,0,.57.07.7.3a.81.81,0,0,1,.06.46c-.14,2.33-.39,4.65-.73,7a.8.8,0,0,1-.31.64.77.77,0,0,1-.5,0c-1.8-.26-4.07-.32-5.76-1S312.73,342.89,312.55,341.24Z" transform="translate(-19.11 -34.56)"/><path d="M303.44,344.22a8.61,8.61,0,0,0-2,0,3.88,3.88,0,0,0-2.63,2.52,11.73,11.73,0,0,0-.55,3.74,2.5,2.5,0,0,0,2.38,3.07,125.63,125.63,0,0,0,13,2.88,13.36,13.36,0,0,0,6.56-.06,2.1,2.1,0,0,0,1-.65,2.31,2.31,0,0,0,.34-.88,35.77,35.77,0,0,0,.94-7.29,3.22,3.22,0,0,0-.39-2,3.45,3.45,0,0,0-1.3-1c-2.49-1.27-5.38-2.43-8.2-2.11C309.5,342.87,306.59,344.33,303.44,344.22Z" transform="translate(-19.11 -34.56)" fill="#282828"/><path d="M279.91,335a8.31,8.31,0,0,0-2-.54,3.88,3.88,0,0,0-3.23,1.68,11.46,11.46,0,0,0-1.58,3.44,3.27,3.27,0,0,0-.23,1.87,3.34,3.34,0,0,0,1.66,1.74,127.26,127.26,0,0,0,11.68,6.41,13.47,13.47,0,0,0,6.31,1.78,2.11,2.11,0,0,0,1.18-.34,2.65,2.65,0,0,0,.58-.75,36.9,36.9,0,0,0,2.94-6.73,2.51,2.51,0,0,0-.81-3.31c-2-1.92-4.47-3.84-7.28-4.32C286.11,335.4,282.91,336,279.91,335Z" transform="translate(-19.11 -34.56)" fill="url(#linear-gradient-37)"/><path d="M303.44,344.22a8.61,8.61,0,0,0-2,0,3.88,3.88,0,0,0-2.63,2.52,11.73,11.73,0,0,0-.55,3.74,2.5,2.5,0,0,0,2.38,3.07,125.63,125.63,0,0,0,13,2.88,13.36,13.36,0,0,0,6.56-.06,2.1,2.1,0,0,0,1-.65,2.31,2.31,0,0,0,.34-.88,35.77,35.77,0,0,0,.94-7.29,3.22,3.22,0,0,0-.39-2,3.45,3.45,0,0,0-1.3-1c-2.49-1.27-5.38-2.43-8.2-2.11C309.5,342.87,306.59,344.33,303.44,344.22Z" transform="translate(-19.11 -34.56)" fill="url(#linear-gradient-38)"/><path d="M137.42,181.36c1.57,3.7,2.34,8.12.4,11.63a10.69,10.69,0,0,1-5.4,4.53,15.64,15.64,0,0,1-7,1.3c-5.8-.47-12.16-8.08-13.14-10.61a20.66,20.66,0,0,1-1.52-5.31,10.71,10.71,0,0,1,4.28-9.55c4-2.92,9.35-2.68,14.06-3.15,3.11-.31,3.36.87,4.57,3.51S136.31,178.74,137.42,181.36Z" transform="translate(-19.11 -34.56)" fill="url(#linear-gradient-39)"/><path d="M125.49,175.34a27.84,27.84,0,0,0-5.13,1.16,5.14,5.14,0,0,0-3.35,3.75c-.24,1.82.92,3.69.37,5.44l-3-3.09a4.48,4.48,0,0,0,.36,8c.43.19.94.37,1.1.81a1.53,1.53,0,0,1-.11,1l-1.48,4.31a37.19,37.19,0,0,1-9.82-18.83,9.35,9.35,0,0,1-.09-4.11,3.82,3.82,0,0,1,2.7-2.86,6.09,6.09,0,0,0,1.87-.37,3.37,3.37,0,0,0,1-1.08c2.39-3.47,6.46-5.49,10.6-6.28,3.36-.65,11.86-2,14,1.85C137.44,170.22,129.38,174.56,125.49,175.34Z" transform="translate(-19.11 -34.56)"/><path d="M265.13,160.24a7.62,7.62,0,0,1-.55,3.49c-.95,1.89-3.28,2.65-5.39,2.74a3.57,3.57,0,0,1-2.81-.79,3.85,3.85,0,0,1-.81-2.25c-.1-.85-.17-1.71-.21-2.56a5.44,5.44,0,0,1,.08-1.56,5.06,5.06,0,0,1,.86-1.74,11.32,11.32,0,0,1,6.8-4.44c1.63-.35,2,.07,2,1.66C265.17,156.61,265.13,158.42,265.13,160.24Z" transform="translate(-19.11 -34.56)" fill="url(#linear-gradient-40)"/><path d="M268.06,140a6.12,6.12,0,0,1,1.68-2.52.68.68,0,0,1,.48-.19.76.76,0,0,1,.44.25,5.68,5.68,0,0,1,1.75,3.35,4.51,4.51,0,0,1-1.09,3.57,2.4,2.4,0,0,1-1.51.84,2.27,2.27,0,0,1-2-1.25,5.8,5.8,0,0,1-.55-2.43c-.05-.91,0-2,.84-2.46" transform="translate(-19.11 -34.56)" fill="url(#linear-gradient-41)"/><path d="M241.54,154a13.3,13.3,0,0,0,4.94,6,13.54,13.54,0,0,0,6.5,1.49A17,17,0,0,0,261,160a14.15,14.15,0,0,0,6.52-7.62,29.27,29.27,0,0,0,1.69-10c.09-3.84-.23-7.88-2.34-11.08a13.73,13.73,0,0,0-10.44-5.68c-5.8-.44-16.54,2.26-18.33,8.83-.66,2.43.1,5.21.39,7.64A37.17,37.17,0,0,0,241.54,154Z" transform="translate(-19.11 -34.56)" fill="url(#linear-gradient-42)"/><path d="M234.32,134.34a11.18,11.18,0,0,0,2.36,5.24c.83-1,.85-2.39,1.08-3.66a10.26,10.26,0,0,1,1.74-4.16,1.91,1.91,0,0,1,.92-.79,2.31,2.31,0,0,1,1.69.53,9,9,0,0,0,5.14,1.25,4.74,4.74,0,0,0,2.45-.75,15.27,15.27,0,0,0,1.38-1.29c2-1.79,5.08-1.73,7.63-.88a7.22,7.22,0,0,1,3.37,2.06c.93,1.12,1.31,2.64,2.3,3.7.59.62,1.39,1.12,1.63,1.94a4.65,4.65,0,0,1,0,1.49,7.14,7.14,0,0,0,.65,3.59c.89-1.11.73-2.76,1.47-4,.56-.93,1.58-1.49,2.2-2.38a6.23,6.23,0,0,0,.59-4.27,44,44,0,0,0-1.41-7.09,11.74,11.74,0,0,0-1.06-2.71,9.39,9.39,0,0,0-6.8-4.23,25.14,25.14,0,0,0-8.24.49,31.39,31.39,0,0,0-9.24,2.79,12.05,12.05,0,0,0-6.19,7.11c-.46,1.67-1.21,1.4-2.36,2.45A4.52,4.52,0,0,0,234.32,134.34Z" transform="translate(-19.11 -34.56)"/><path d="M114.46,199.27l-2.38,2.39s4,6.48,10,8.17,4.22-1.41,4.22-1.41-8.09-1.9-9.15-5A8.17,8.17,0,0,0,114.46,199.27Z" transform="translate(-19.11 -34.56)" fill="#282828"/><path d="M114.46,199.27l-2.38,2.39s4,6.48,10,8.17,4.22-1.41,4.22-1.41-8.09-1.9-9.15-5A8.17,8.17,0,0,0,114.46,199.27Z" transform="translate(-19.11 -34.56)" fill="url(#linear-gradient-43)"/><path d="M174.14,338.62l-11.4,3.26-.11-.46c0-.15-.08-.33-.14-.55a.23.23,0,0,0,0-.11c-.06-.25-.13-.55-.22-.89s-.2-.78-.31-1.23c-1.79-7.16-6.09-24.19-7.93-30.18-2-6.6-10.05-9.82-12.24-10.58l-.11,0-.33-.11-.09,0h0l-7.45-5.22s-17.75-13-16.35-19.71l11.37-.12h0c.91.27,30,8.94,36.69,16.79S174.14,338.62,174.14,338.62Z" transform="translate(-19.11 -34.56)" fill="url(#linear-gradient-44)"/><rect x="136.52" y="237.98" width="8.41" height="93.45" fill="#282828"/><rect x="136.52" y="237.98" width="8.41" height="93.45" fill="url(#linear-gradient-45)"/><rect x="285.89" y="237.98" width="8.41" height="93.45" fill="#282828"/><rect x="285.89" y="237.98" width="8.41" height="93.45" fill="url(#linear-gradient-46)"/><path d="M290.19,226.49l1.56,3.88-4.17,6.85s-7.25-5.2-8.84-7.35-6.2-7.89-3.47-10.05S286.11,225,286.11,225s-1.46-4.88,1-3.86C287.77,221.42,290.19,226.49,290.19,226.49Z" transform="translate(-19.11 -34.56)" fill="url(#linear-gradient-47)"/><path d="M319.17,171.21a14.38,14.38,0,0,0-.13,5.92,4.83,4.83,0,0,0,.71,2.37,4.55,4.55,0,0,0,2.12,1.33,28.73,28.73,0,0,0,9.08,1.79,2.51,2.51,0,0,1,1.71.47c.5.47.5,1.26.85,1.85.72,1.26,2.52,1.19,4,.95a35.19,35.19,0,0,1-6.23,21.57,13.15,13.15,0,0,0,13.84-2.4c-.5,1.5,1.54,2.81,3,2.31s2.4-2,3.17-3.36l.73,1.79a14.17,14.17,0,0,0,5.09-8.59A34,34,0,0,0,357.3,187a36.53,36.53,0,0,0-2.38-10.86,15.59,15.59,0,0,0-7.3-8.13c-2.84-1.35-6.08-1.52-9.22-1.57C333,166.39,321.37,164.21,319.17,171.21Z" transform="translate(-19.11 -34.56)"/><polygon points="313.22 177.82 310.6 176.23 309.81 180.65 313.22 177.82" fill="url(#linear-gradient-48)"/><path d="M171.5,250s-5,.36-6,2.75.19,5.61.81,5.54,4.05-.61,4.05-.61-3.52,1.12-3.66-1.27S166.11,251.71,171.5,250Z" transform="translate(-19.11 -34.56)" fill="url(#linear-gradient-49)"/></svg>