<svg width="106" height="102" viewBox="0 0 106 102" fill="none" xmlns="http://www.w3.org/2000/svg">
<path d="M37.7227 101.5C31.7227 101.5 25.9727 101.083 20.4727 100.25C15.056 99.4167 10.8477 98.4583 7.84766 97.375V76.875C16.681 78.4583 24.5977 79.25 31.5977 79.25C36.3477 79.25 39.7643 78.5 41.8477 77C44.0143 75.5833 45.0977 72.875 45.0977 68.875V63.5C43.0143 66.1667 40.306 68.5417 36.9727 70.625C33.7227 72.7083 29.9727 73.75 25.7227 73.75C17.2227 73.75 10.806 70.5833 6.47266 64.25C2.22266 57.9167 0.0976563 48.9167 0.0976563 37.25C0.0976563 25.5833 2.22266 16.5833 6.47266 10.25C10.806 3.91666 17.2227 0.749993 25.7227 0.749993C29.9727 0.749993 33.7227 1.79166 36.9727 3.875C40.306 5.95833 43.0143 8.33333 45.0977 11V2.49999H79.3477V23H73.8477V67C73.8477 79.0833 70.8477 87.8333 64.8477 93.25C58.8477 98.75 49.806 101.5 37.7227 101.5ZM37.8477 51.5C40.2643 51.5 42.056 50.875 43.2227 49.625C44.4727 48.2917 45.0977 46.25 45.0977 43.5V31C45.0977 28.25 44.4727 26.25 43.2227 25C42.056 23.6667 40.2643 23 37.8477 23C35.431 23 33.5977 23.6667 32.3477 25C31.181 26.25 30.5977 28.25 30.5977 31V43.5C30.5977 46.25 31.181 48.2917 32.3477 49.625C33.5977 50.875 35.431 51.5 37.8477 51.5Z" fill="black"/>
<path d="M85.6348 72V51.5H105.135V72H85.6348Z" fill="#FFBD27"/>
</svg>
