<svg id="Layer_1" data-name="Layer 1" xmlns="http://www.w3.org/2000/svg" xmlns:xlink="http://www.w3.org/1999/xlink" viewBox="0 0 706.94 597.04"><defs><linearGradient id="linear-gradient" x1="94.66" y1="223.23" x2="216.08" y2="223.23" gradientTransform="translate(-66.12 335.98)" gradientUnits="userSpaceOnUse"><stop offset="0" stop-color="#183866"/><stop offset="1" stop-color="#1a7fc1"/></linearGradient><linearGradient id="linear-gradient-2" x1="338.91" y1="-60.38" x2="-419.55" y2="-25.33" gradientTransform="translate(-66.12 335.98)" gradientUnits="userSpaceOnUse"><stop offset="0" stop-opacity="0"/><stop offset="0.97"/><stop offset="0.97" stop-color="#0c0c11"/><stop offset="0.98" stop-color="#312f43"/><stop offset="0.99" stop-color="#3f3d56"/></linearGradient><linearGradient id="linear-gradient-3" x1="54.26" y1="50.12" x2="397.83" y2="-3.39" xlink:href="#linear-gradient-2"/><linearGradient id="linear-gradient-4" x1="87.57" y1="35.01" x2="330.28" y2="20.4" gradientTransform="translate(-66.12 335.98)" gradientUnits="userSpaceOnUse"><stop offset="0" stop-opacity="0"/><stop offset="0.29" stop-opacity="0.29"/><stop offset="0.97"/><stop offset="0.97" stop-color="#0c0c11"/><stop offset="0.98" stop-color="#312f43"/><stop offset="0.99" stop-color="#3f3d56"/></linearGradient><linearGradient id="linear-gradient-5" x1="278.82" y1="182.52" x2="149.37" y2="3.28" gradientTransform="translate(-66.12 335.98)" gradientUnits="userSpaceOnUse"><stop offset="0" stop-opacity="0"/><stop offset="0.84" stop-opacity="0.66"/><stop offset="0.97"/></linearGradient><linearGradient id="linear-gradient-6" x1="227.29" y1="160.82" x2="70.83" y2="173.18" gradientTransform="translate(-66.12 335.98)" gradientUnits="userSpaceOnUse"><stop offset="0" stop-opacity="0"/><stop offset="0.87" stop-opacity="0.66"/><stop offset="1"/></linearGradient><linearGradient id="linear-gradient-7" x1="416.13" y1="-359.1" x2="424.43" y2="338.3" gradientTransform="translate(-66.12 335.98)" gradientUnits="userSpaceOnUse"><stop offset="0" stop-opacity="0"/><stop offset="0.5" stop-opacity="0.38"/><stop offset="0.97"/><stop offset="0.97" stop-color="#0c0c11"/><stop offset="0.98" stop-color="#312f43"/><stop offset="0.99" stop-color="#3f3d56"/></linearGradient><linearGradient id="linear-gradient-8" x1="88.67" y1="64.96" x2="88.95" y2="97.62" gradientTransform="matrix(1, 0, 0, 1, 0, 0)" xlink:href="#linear-gradient-7"/><linearGradient id="linear-gradient-9" x1="109.38" y1="64.78" x2="109.66" y2="97.45" gradientTransform="matrix(1, 0, 0, 1, 0, 0)" xlink:href="#linear-gradient-7"/><linearGradient id="linear-gradient-10" x1="130.08" y1="64.61" x2="130.36" y2="97.27" gradientTransform="matrix(1, 0, 0, 1, 0, 0)" xlink:href="#linear-gradient-7"/><linearGradient id="linear-gradient-11" x1="445.33" y1="-266.04" x2="388.26" y2="96.31" gradientTransform="translate(-66.12 335.98)" gradientUnits="userSpaceOnUse"><stop offset="0.01"/><stop offset="0.99" stop-opacity="0"/></linearGradient><linearGradient id="linear-gradient-12" x1="412.42" y1="-184.49" x2="411.09" y2="-99.45" xlink:href="#linear-gradient-11"/><linearGradient id="linear-gradient-13" x1="574.14" y1="33.65" x2="695.58" y2="151.44" gradientTransform="translate(-66.12 335.98)" gradientUnits="userSpaceOnUse"><stop offset="0.01"/><stop offset="0.15" stop-opacity="0.52"/><stop offset="0.99" stop-opacity="0"/></linearGradient><linearGradient id="linear-gradient-14" x1="610.2" y1="158.47" x2="469.84" y2="39.46" gradientTransform="translate(-66.12 335.98)" gradientUnits="userSpaceOnUse"><stop offset="0.01"/><stop offset="0.16" stop-opacity="0.52"/><stop offset="1" stop-opacity="0"/></linearGradient><linearGradient id="linear-gradient-15" x1="615.98" y1="165.9" x2="827.13" y2="112.2" xlink:href="#linear-gradient-13"/><linearGradient id="linear-gradient-16" x1="599.82" y1="79.25" x2="762.77" y2="-26.33" xlink:href="#linear-gradient-13"/><linearGradient id="linear-gradient-17" x1="619.9" y1="33.21" x2="765.75" y2="75.93" xlink:href="#linear-gradient-13"/><linearGradient id="linear-gradient-18" x1="-488.91" y1="862.13" x2="-453.9" y2="862.13" gradientTransform="matrix(0.97, 0.25, -0.25, 0.97, 1225.35, -394.02)" gradientUnits="userSpaceOnUse"><stop offset="0" stop-color="#ecc4d7"/><stop offset="0.42" stop-color="#efd4d1"/><stop offset="1" stop-color="#f2eac9"/></linearGradient><linearGradient id="linear-gradient-19" x1="598.25" y1="-27.99" x2="710.18" y2="-69.78" gradientTransform="translate(-66.12 335.98)" gradientUnits="userSpaceOnUse"><stop offset="0.01"/><stop offset="0.03" stop-opacity="0.93"/><stop offset="0.51" stop-opacity="0.05"/><stop offset="0.58" stop-opacity="0.03"/><stop offset="0.99" stop-opacity="0"/></linearGradient><linearGradient id="linear-gradient-20" x1="608.77" y1="-16.48" x2="685.27" y2="-21.61" xlink:href="#linear-gradient-13"/><linearGradient id="linear-gradient-21" x1="-475.44" y1="876.85" x2="-432.92" y2="895.31" xlink:href="#linear-gradient-18"/><linearGradient id="linear-gradient-22" x1="550.81" y1="44.43" x2="542.86" y2="295.73" xlink:href="#linear-gradient-13"/><linearGradient id="linear-gradient-23" x1="606.39" y1="45.01" x2="598.44" y2="296.31" xlink:href="#linear-gradient-13"/></defs><title>24. Security</title><path d="M149.64,552c1.26,3.32-1.34,7-4.52,8.58s-6.86,1.72-10.3,2.61c-5.35,1.38-10.06,4.52-15.24,6.45-7.11,2.65-14.85,2.94-22.44,3.2-22.9.79-47.34,1.18-66.8-10.92a3.72,3.72,0,0,1-1.69-1.68,3,3,0,0,1,.21-2.17c1.61-3.71,6.23-4.84,10.23-5.47,18.84-2.94,38.13-5.6,57.21-6.27C106.22,546,145.88,542,149.64,552Z" transform="translate(0 0)" opacity="0.19" fill="url(#linear-gradient)" style="isolation:isolate"/><path d="M542.8,553.48c-8.67,1.76-16.84,5.37-24.93,9l-32.45,14.37c18.1,9.74,40.07,5.72,60.63,5.44,1.8,0,3.74,0,5.17,1.12,2,1.57,2.18,4.54,3.43,6.78,2.35,4.24,8,5.09,12.83,5.41a677.74,677.74,0,0,0,131.12-4.18c2.08-.27,4.26-.59,5.94-1.84,5-3.73,1.48-12.34-4.18-15s-12.31-2-18.32-3.72-11.81-8.08-9-13.69q-37.17.74-74.34-.8C580,555.57,561.47,549.68,542.8,553.48Z" transform="translate(0 0)" fill="#1d2741" opacity="0.18" style="isolation:isolate"/><path d="M662.28,337.33c4.06-42.35,24.67-87.15,3.6-125.44-5.53-10-13.46-18.57-22.33-26.54-11.72-10.51-25.07-20-36.74-30.59C586.16,136,574.35,113.57,558.44,93a153.22,153.22,0,0,0-22.37-23.73q-4.94-4.17-10-8.21c-27.66-21.91-58.79-40.72-94.19-51.64C381.68-6,322-3.53,279.61,24.67c-15.26,10.15-27.62,23-39.54,36.4C230.45,71.84,221.16,82.9,210.88,93c-9.19,9.08-19.15,17.4-30.78,24.07-16.56,9.51-35.62,15.1-53.19,23.09a182.8,182.8,0,0,0-32,18.67,179.2,179.2,0,0,0-35.69,34.38C37,221.53,24.43,255.68,25.28,290.06c.13,5.38.57,10.79.74,16.19A78.57,78.57,0,0,1,25,324c-1.86,9.6-6.43,18.62-11.15,27.56C7.42,363.73.69,375.77.05,389c-1.12,22.74,15.72,42.22,34.4,58.87,3.12,2.78,6.3,5.49,9.44,8.12,5,4.2,10.15,8.4,15.34,12.55l1,.8c2.78,2.21,5.57,4.41,8.4,6.59,7.1,5.47,14.37,10.8,21.82,15.88q5,3.39,10,6.59a273.13,273.13,0,0,0,24,13.74c20.31,10.32,42,17.86,65.34,20.86,63.93,8,127.52-20.43,192-16.67,42.31,2.46,81.77,18.6,122.77,28s88.61,10.9,121.67-12.33c30.47-21.37,40.46-58.29,40.54-92.43S659,371.36,662.28,337.33Z" transform="translate(0 0)" fill="#282828" opacity="0.18" style="isolation:isolate"/><path d="M615.88,61.07h-529A27.61,27.61,0,0,0,59.23,88.64h0V469.33H643.5V88.68a27.61,27.61,0,0,0-27.61-27.61Z" transform="translate(0 0)" fill="#282828"/><path d="M165.1,407.83c-1,10.43-10.36,18.09-20,21.37-5,1.7-10.31,2.65-14.6,5.75s-7.1,9.37-4.4,14a16.35,16.35,0,0,1,15.26,10.29c-6.17,9.39-17.1,14.52-28,16s-22-.26-32.8-2.06c-3.79-.62-7.83-1.38-10.56-4.16s-3.48-6.82-4.16-10.65c-.09-.54-.19-1.08-.29-1.63H59V93H94.8V266c0,14.11-.64,28.34-.42,42.4.22,13.38,9.12,20.16,17.6,29.89,2.61,3,5.32,6.18,6.09,10.13.83,4.19-.67,8.63.44,12.74,1.92,7.14,10.91,9.84,17.81,7.82s12.43-7.22,18.38-11.36a67.18,67.18,0,0,1,34.85-11.89c-4.19,17.77-24.8,29-25.28,47.31C164.12,398,165.58,402.88,165.1,407.83Z" transform="translate(0 0)" opacity="0.47" fill="url(#linear-gradient-2)" style="isolation:isolate"/><path d="M33.78,423.51c-9-14.55-15.3-30.9-17.09-47.91-1.1-10.37-.63-21.31-5.31-30.63-2.78-5.54-7.31-10.3-8.71-16.35-2.6-11.3,6.47-21.63,14.8-29.7a3.85,3.85,0,0,1,1.92-1.24c1.3-.24,2.47.84,3.26,1.91,4.77,6.43,5.15,15,6.37,22.87,1.31,8.55,4.11,17.39,10.62,23.1s16.54,8.22,19.75,16.28c2.85,7.18-1.24,15.65,1.33,22.94s11.36,11.66,12.68,19.34c.88,5.1-1.86,10.16-1.78,15.33.06,3.94,1.75,7.65,2.71,11.48,2.06,8.22,0,32.29-12.49,25.25C50.53,449.83,40.42,434.24,33.78,423.51Z" transform="translate(0 0)" fill="#282828"/><path d="M33.78,423.51c-9-14.55-15.3-30.9-17.09-47.91-1.1-10.37-.63-21.31-5.31-30.63-2.78-5.54-7.31-10.3-8.71-16.35-2.6-11.3,6.47-21.63,14.8-29.7a3.85,3.85,0,0,1,1.92-1.24c1.3-.24,2.47.84,3.26,1.91,4.77,6.43,5.15,15,6.37,22.87,1.31,8.55,4.11,17.39,10.62,23.1s16.54,8.22,19.75,16.28c2.85,7.18-1.24,15.65,1.33,22.94s11.36,11.66,12.68,19.34c.88,5.1-1.86,10.16-1.78,15.33.06,3.94,1.75,7.65,2.71,11.48,2.06,8.22,0,32.29-12.49,25.25C50.53,449.83,40.42,434.24,33.78,423.51Z" transform="translate(0 0)" fill="url(#linear-gradient-3)"/><path d="M56.48,407c-3.27-16.78-3.38-34.32,1-50.86,2.65-10.09,7-20.15,5.87-30.52-.64-6.17-3.2-12.23-2.36-18.37,1.57-11.49,13.7-18,24.34-22.56a4,4,0,0,1,2.24-.48c1.31.24,2,1.66,2.37,2.94,2.19,7.7-.47,15.82-2.13,23.65-1.79,8.46-2.3,17.72,1.76,25.36s12.57,13.54,12.72,22.21c.13,7.73-6.69,14.21-6.86,21.93s6.5,14.92,5,22.58c-1,5.08-5.34,8.84-7.09,13.7-1.34,3.71-1.07,7.78-1.52,11.7-1,8.42-11.38,30.23-20.62,19.2C62.88,437.5,58.88,419.35,56.48,407Z" transform="translate(0 0)" fill="#282828"/><path d="M56.48,407c-3.27-16.78-3.38-34.32,1-50.86,2.65-10.09,7-20.15,5.87-30.52-.64-6.17-3.2-12.23-2.36-18.37,1.57-11.49,13.7-18,24.34-22.56a4,4,0,0,1,2.24-.48c1.31.24,2,1.66,2.37,2.94,2.19,7.7-.47,15.82-2.13,23.65-1.79,8.46-2.3,17.72,1.76,25.36s12.57,13.54,12.72,22.21c.13,7.73-6.69,14.21-6.86,21.93s6.5,14.92,5,22.58c-1,5.08-5.34,8.84-7.09,13.7-1.34,3.71-1.07,7.78-1.52,11.7-1,8.42-11.38,30.23-20.62,19.2C62.88,437.5,58.88,419.35,56.48,407Z" transform="translate(0 0)" fill="url(#linear-gradient-4)"/><path d="M79.54,409.77c8.6-14.78,20.07-28,34.23-37.62,8.64-5.85,18.51-10.58,24.53-19.1,3.58-5.06,5.66-11.3,10.33-15.37,8.75-7.61,22.14-4.48,33.18-.92a3.91,3.91,0,0,1,2,1.11c.83,1,.42,2.57-.15,3.78-3.42,7.23-10.78,11.58-17.18,16.38-6.93,5.18-13.41,11.81-15.39,20.23s.53,18.47-5.08,25.09c-5,5.9-14.39,6.27-19.61,12s-4.94,15.51-11.1,20.29c-4.09,3.17-9.84,3.14-14.36,5.64-3.45,1.91-5.93,5.14-8.86,7.79-6.28,5.69-28.47,15.24-28.15.86C64.2,437,73.19,420.67,79.54,409.77Z" transform="translate(0 0)" fill="#282828"/><path d="M79.54,409.77c8.6-14.78,20.07-28,34.23-37.62,8.64-5.85,18.51-10.58,24.53-19.1,3.58-5.06,5.66-11.3,10.33-15.37,8.75-7.61,22.14-4.48,33.18-.92a3.91,3.91,0,0,1,2,1.11c.83,1,.42,2.57-.15,3.78-3.42,7.23-10.78,11.58-17.18,16.38-6.93,5.18-13.41,11.81-15.39,20.23s.53,18.47-5.08,25.09c-5,5.9-14.39,6.27-19.61,12s-4.94,15.51-11.1,20.29c-4.09,3.17-9.84,3.14-14.36,5.64-3.45,1.91-5.93,5.14-8.86,7.79-6.28,5.69-28.47,15.24-28.15.86C64.2,437,73.19,420.67,79.54,409.77Z" transform="translate(0 0)" fill="url(#linear-gradient-5)"/><path d="M133.22,461.76l-1.34,7.57-1.15,6.59L128,491.8l-1.09,6.59-2.76,15.89L123,520.86l-6.86,39.48H44.8l-6.92-39.48-1.15-6.58L34,498.39l-1.16-6.59L30,475.92l-1.13-6.59-1.32-7.56A13.1,13.1,0,0,1,38.18,446.6h0a13.3,13.3,0,0,1,2.27-.2H120.3a13.08,13.08,0,0,1,13.1,13.06,13.65,13.65,0,0,1-.2,2.3Z" transform="translate(0 0)" fill="#282828"/><path d="M133.22,461.76l-1.34,7.57-1.15,6.59L128,491.8l-1.09,6.59-2.76,15.89L123,520.86l-6.86,39.48H44.8l-6.92-39.48-1.15-6.58L34,498.39l-1.16-6.59L30,475.92l-1.13-6.59-1.32-7.56A13.1,13.1,0,0,1,38.18,446.6h0a13.3,13.3,0,0,1,2.27-.2H120.3a13.08,13.08,0,0,1,13.1,13.06,13.65,13.65,0,0,1-.2,2.3Z" transform="translate(0 0)" fill="url(#linear-gradient-6)"/><path d="M643.5,88.68V93H59.23v-4.3A27.61,27.61,0,0,1,86.84,61.07h529a27.61,27.61,0,0,1,27.62,27.6Z" transform="translate(0 0)" fill="url(#linear-gradient-7)"/><circle cx="88.76" cy="75.84" r="6.17" fill="url(#linear-gradient-8)"/><circle cx="109.47" cy="75.84" r="6.17" fill="url(#linear-gradient-9)"/><circle cx="130.17" cy="75.84" r="6.17" fill="url(#linear-gradient-10)"/><path d="M417.19,227V341.25a14.63,14.63,0,0,1-14.61,14.6H288.37a14.63,14.63,0,0,1-14.61-14.6V227a14.6,14.6,0,0,1,14.6-14.6H402.58A14.6,14.6,0,0,1,417.19,227Z" transform="translate(0 0)" fill="url(#linear-gradient-11)"/><path d="M357.15,270.52A11.7,11.7,0,0,1,351.3,281a3,3,0,0,0-1.5,2.65v25a3.48,3.48,0,0,1-3.48,3.48h-1.7a3.48,3.48,0,0,1-3.48-3.48h0v-25a3.06,3.06,0,0,0-1.5-2.66,11.68,11.68,0,1,1,17.51-10.45Z" transform="translate(0 0)" fill="#282828"/><polygon points="131.91 469.33 130.76 475.92 30.02 475.92 28.87 469.33 131.91 469.33" fill="#282828"/><polygon points="127.99 491.8 126.85 498.39 33.96 498.39 32.8 491.8 127.99 491.8" fill="#282828"/><polygon points="124.09 514.28 122.94 520.86 37.88 520.86 36.73 514.28 124.09 514.28" fill="#282828"/><path d="M494.21,305.89c-4.69-6.57-11.78-11.14-19.33-14-1.72-.65-3.66-1.21-5.34-.48a7.73,7.73,0,0,0-2.87,2.75c-3.64,5-7.43,10.4-7.78,16.58-.52,9.4,6.93,19.41,2.15,27.52-1.33,2.26-3.45,3.94-5,6.06-2.92,4-3.59,9.24-3.2,14.18.47,5.93,1.23,13.86-4.37,15.88a9.62,9.62,0,0,1-5.16.07c-4.91-1-9.45-3.35-14.26-4.75s-10.36-1.73-14.54,1c-.37,5.34,4.22,9.79,9.05,12.1s10.27,3.36,14.7,6.37c6.7,4.54,10,13,9.79,21.13s-3.39,15.83-7.45,22.84c-1.89,3.26-4,6.51-4.78,10.2-1.53,7.36,2.59,14.59,6.54,21,1.16,1.87,2.43,3.85,4.45,4.73a10.92,10.92,0,0,0,5.32.43l70.14-6c2-.17,4.33-.57,5.19-2.38a5.3,5.3,0,0,0,0-3.43c-2.29-9.82-9.5-17.9-12.06-27.66-1.18-4.55-1.31-9.3-1.44-14-.52-19.38-1.17-38.95-5.3-58-2.07-9.49-7.17-18.36-9.19-27.61C497.59,321.79,500.17,314.23,494.21,305.89Z" transform="translate(0 0)" fill="#1d2741" opacity="0.18" style="isolation:isolate"/><path d="M384.14,212.43H371.73V195.76a26.25,26.25,0,0,0-52.5.13v16.54H306.81v-17a38.67,38.67,0,0,1,77.32.23Z" transform="translate(0 0)" fill="url(#linear-gradient-12)"/><path d="M643.41,546l10.47,10L638.81,571l-18.93,1.63a7,7,0,0,1,3.46-8.55,33,33,0,0,1,11.19-3.66l-.41-7.74Z" transform="translate(0 0)" fill="#3f3d56"/><path d="M527,545.21l1.54,12.62-35.46,15.88s-4.43-6.85.11-12.8,17.06-10.13,17.06-10.13l2.21-5.49Z" transform="translate(0 0)" fill="#3f3d56"/><path d="M536.07,350.56s-12.84,9.49-14.19,24.22-2,19.9-2,19.9l-22.5-1.82-.3,12.44s29.85,10.91,34.43,9.05,10.31-10.07,10.31-10.07Z" transform="translate(0 0)" fill="#282828"/><path d="M536.07,350.56s-12.84,9.49-14.19,24.22-2,19.9-2,19.9l-22.5-1.82-.3,12.44s29.85,10.91,34.43,9.05,10.31-10.07,10.31-10.07Z" transform="translate(0 0)" fill="url(#linear-gradient-13)"/><path d="M544.71,429.07s-47,38.78-47.38,52S508.88,546,508.88,546l18.22-.1.53-54.34s38.44-13.42,42.62-21.53S583.29,422.34,544.71,429.07Z" transform="translate(0 0)" fill="#282828"/><path d="M544.71,429.07s-47,38.78-47.38,52S508.88,546,508.88,546l18.22-.1.53-54.34s38.44-13.42,42.62-21.53S583.29,422.34,544.71,429.07Z" transform="translate(0 0)" fill="url(#linear-gradient-14)"/><path d="M544.71,429.07s2.87,59.14,21.36,78.26,65.81,47.81,65.81,47.81l13.43-8.33-45.43-47.42s6.57-53.23-1.2-62.56S544.71,429.07,544.71,429.07Z" transform="translate(0 0)" fill="#282828"/><path d="M544.71,429.07s2.87,59.14,21.36,78.26,65.81,47.81,65.81,47.81l13.43-8.33-45.43-47.42s6.57-53.23-1.2-62.56S544.71,429.07,544.71,429.07Z" transform="translate(0 0)" fill="url(#linear-gradient-15)"/><path d="M544.71,429.07l-16.06-67.95s9-25.91,44.67-17.57,25.33,93.28,25.33,93.28S558.61,450.11,544.71,429.07Z" transform="translate(0 0)" fill="#282828"/><path d="M544.71,429.07l-16.06-67.95s9-25.91,44.67-17.57,25.33,93.28,25.33,93.28S558.61,450.11,544.71,429.07Z" transform="translate(0 0)" fill="url(#linear-gradient-16)"/><path d="M572.11,354s-2.14-11.31,9.34-8.29,29.35,42,28.69,47.42-56.51,7.65-56.51,7.65l-1.33-13,29.36-4.91S570.88,364.39,572.11,354Z" transform="translate(0 0)" fill="#282828"/><path d="M572.11,354s-2.14-11.31,9.34-8.29,29.35,42,28.69,47.42-56.51,7.65-56.51,7.65l-1.33-13,29.36-4.91S570.88,364.39,572.11,354Z" transform="translate(0 0)" fill="url(#linear-gradient-17)"/><path d="M566.63,329.86a13.34,13.34,0,0,1-6.61,6.39,9.83,9.83,0,0,0-1.41.61,2.69,2.69,0,0,0-.55.46c-1,1.12-.3,2.78,0,4.22.56,3.28-1.34,6.64-4.08,8.52a17,17,0,0,1-5,2.17c-2.49.65-5.17.8-7.06-.09-3-1.41-2.7-6-3.36-8.81-2.18-9.12-4.09-18.47-3.1-27.9.53-5,1.93-10.1,4.94-14.16s7.8-7,12.86-6.91,9.86,3.28,13.47,7a17.44,17.44,0,0,1,3.16,4.23c2.34,4.69,1.1,10.3-.2,15.38A39.46,39.46,0,0,1,566.63,329.86Z" transform="translate(0 0)" fill="url(#linear-gradient-18)"/><path d="M570.65,307.74s-15,0-24.07,5.28c-8.09,4.69-10.32,14.71-11,14.54-1.53-.35-6.52-10-4.42-12.13s.44-2.14.44-2.14-2.41-4-1.2-11.18a115,115,0,0,1,4.06-15.47s.63-2.38,9.71,0,24.39,9.65,25.24,12.6.15,4.3.15,4.3S572.05,305.37,570.65,307.74Z" transform="translate(0 0)" fill="#282828"/><path d="M570.65,307.74s-15,0-24.07,5.28c-8.09,4.69-10.32,14.71-11,14.54-1.53-.35-6.52-10-4.42-12.13s.44-2.14.44-2.14-2.41-4-1.2-11.18a115,115,0,0,1,4.06-15.47s.63-2.38,9.71,0,24.39,9.65,25.24,12.6.15,4.3.15,4.3S572.05,305.37,570.65,307.74Z" transform="translate(0 0)" fill="url(#linear-gradient-19)"/><path d="M546.58,313a113.92,113.92,0,0,0,16,2.68c4.84.31,8.33-1,8.36-1.23.06-.51-1.57,8.12-1.57,8.12l-3.67,1.29a10.07,10.07,0,0,1-4.42.52L538.39,322S542.29,315,546.58,313Z" transform="translate(0 0)" fill="#282828"/><path d="M546.58,313a113.92,113.92,0,0,0,16,2.68c4.84.31,8.33-1,8.36-1.23.06-.51-1.57,8.12-1.57,8.12l-3.67,1.29a10.07,10.07,0,0,1-4.42.52L538.39,322S542.29,315,546.58,313Z" transform="translate(0 0)" fill="url(#linear-gradient-20)"/><path d="M556,317.42a3.41,3.41,0,0,1,2,.06,1.94,1.94,0,0,1,1.13.65,2.41,2.41,0,0,1,.34.85.8.8,0,0,1,0,.53.71.71,0,0,1-.7.23,9,9,0,0,1-3.48-.67C554.38,318.6,555.23,317.69,556,317.42Z" transform="translate(0 0)" fill="#fff"/><path d="M566.55,317.91a1.86,1.86,0,0,1,1.39-.47,1.18,1.18,0,0,1,.89.33,2.57,2.57,0,0,1,.39.73,1,1,0,0,1,.1.52.52.52,0,0,1-.43.4,4.59,4.59,0,0,1-2.51.25C565.66,319.46,566.07,318.36,566.55,317.91Z" transform="translate(0 0)" fill="#fff"/><path d="M553.93,350.06a17,17,0,0,1-5,2.17,11.31,11.31,0,0,1-2.74-6,31.93,31.93,0,0,1-.53-4.68,5.5,5.5,0,0,1,.94-3.88,4.61,4.61,0,0,1,3.93-1.16c1.41.16,2.77.65,4.18.8,1.2.13,2.64-.42,3.9-.49a2.69,2.69,0,0,0-.55.46c-1,1.12-.3,2.78,0,4.22C558.57,344.82,556.67,348.18,553.93,350.06Z" transform="translate(0 0)" fill="url(#linear-gradient-21)"/><path d="M489.61,386.6a4.24,4.24,0,0,0-2-.87,1.5,1.5,0,0,0-1.64,1.13,2.23,2.23,0,0,0,.49,1.4l1.35,2.11a1.4,1.4,0,0,1,.29.76c0,.7-1,.84-1.71.75-4.4-.56-8.79-1.92-13.18-1.34a1.4,1.4,0,0,0-.91.37,1,1,0,0,0,.11,1.25,2.73,2.73,0,0,0,1.18.67,50.66,50.66,0,0,0,7.55,2.12c-.29.72-1.24.85-2,.88a42,42,0,0,0-6.33.72c-1.19.22-2.65.82-2.66,2a1.9,1.9,0,0,0,1.43,1.68,6.05,6.05,0,0,0,2.36.08,38,38,0,0,1,8.26.21,16.37,16.37,0,0,0-8.13,3.3,1.7,1.7,0,0,0-.52.58c-.27.58.24,1.28.85,1.48a3.71,3.71,0,0,0,1.9-.11,42.42,42.42,0,0,1,8.33-1.08,20.17,20.17,0,0,0-4.68,3,3.38,3.38,0,0,0-1,1.25,1.34,1.34,0,0,0,.26,1.51,1.9,1.9,0,0,0,1.72.14c3.33-.9,6.27-3.06,9.68-3.56,1.78-.27,3.84-.16,5.08-1.47a5.33,5.33,0,0,0,1.08-2.23c.74-2.57,2.27-8,.72-10.5-.61-1-2.09-1.82-3-2.56A58.11,58.11,0,0,0,489.61,386.6Z" transform="translate(0 0)" fill="#282828"/><path d="M545.34,382.5a4.24,4.24,0,0,0-2-.87,1.5,1.5,0,0,0-1.64,1.13,2.23,2.23,0,0,0,.49,1.4l1.35,2.11a1.4,1.4,0,0,1,.29.76c-.05.7-1,.84-1.71.75-4.4-.56-8.79-1.93-13.18-1.34a1.39,1.39,0,0,0-.91.36,1,1,0,0,0,.11,1.26,2.73,2.73,0,0,0,1.18.67,50.66,50.66,0,0,0,7.55,2.12c-.29.72-1.24.84-2,.87a43.36,43.36,0,0,0-6.33.73c-1.19.22-2.65.81-2.66,2a1.9,1.9,0,0,0,1.43,1.68,6.05,6.05,0,0,0,2.36.08,38,38,0,0,1,8.26.21,16.33,16.33,0,0,0-8.12,3.3,1.7,1.7,0,0,0-.53.57,1.21,1.21,0,0,0,.83,1.48h0a3.61,3.61,0,0,0,1.9-.1,41.68,41.68,0,0,1,8.33-1.08,20.17,20.17,0,0,0-4.68,3,3.38,3.38,0,0,0-1,1.25,1.36,1.36,0,0,0,.26,1.51,1.92,1.92,0,0,0,1.73.14c3.32-.9,6.26-3.06,9.67-3.56,1.78-.27,3.84-.16,5.08-1.47a5.33,5.33,0,0,0,1.08-2.23c.75-2.57,2.27-8,.72-10.51-.61-1-2.09-1.81-3-2.55A58,58,0,0,0,545.34,382.5Z" transform="translate(0 0)" fill="#282828"/><path d="M489.61,386.6a4.24,4.24,0,0,0-2-.87,1.5,1.5,0,0,0-1.64,1.13,2.23,2.23,0,0,0,.49,1.4l1.35,2.11a1.4,1.4,0,0,1,.29.76c0,.7-1,.84-1.71.75-4.4-.56-8.79-1.92-13.18-1.34a1.4,1.4,0,0,0-.91.37,1,1,0,0,0,.11,1.25,2.73,2.73,0,0,0,1.18.67,50.66,50.66,0,0,0,7.55,2.12c-.29.72-1.24.85-2,.88a42,42,0,0,0-6.33.72c-1.19.22-2.65.82-2.66,2a1.9,1.9,0,0,0,1.43,1.68,6.05,6.05,0,0,0,2.36.08,38,38,0,0,1,8.26.21,16.37,16.37,0,0,0-8.13,3.3,1.7,1.7,0,0,0-.52.58c-.27.58.24,1.28.85,1.48a3.71,3.71,0,0,0,1.9-.11,42.42,42.42,0,0,1,8.33-1.08,20.17,20.17,0,0,0-4.68,3,3.38,3.38,0,0,0-1,1.25,1.34,1.34,0,0,0,.26,1.51,1.9,1.9,0,0,0,1.72.14c3.33-.9,6.27-3.06,9.68-3.56,1.78-.27,3.84-.16,5.08-1.47a5.33,5.33,0,0,0,1.08-2.23c.74-2.57,2.27-8,.72-10.5-.61-1-2.09-1.82-3-2.56A58.11,58.11,0,0,0,489.61,386.6Z" transform="translate(0 0)" fill="url(#linear-gradient-22)"/><path d="M545.34,382.5a4.24,4.24,0,0,0-2-.87,1.5,1.5,0,0,0-1.64,1.13,2.23,2.23,0,0,0,.49,1.4l1.35,2.11a1.4,1.4,0,0,1,.29.76c-.05.7-1,.84-1.71.75-4.4-.56-8.79-1.93-13.18-1.34a1.39,1.39,0,0,0-.91.36,1,1,0,0,0,.11,1.26,2.73,2.73,0,0,0,1.18.67,50.66,50.66,0,0,0,7.55,2.12c-.29.72-1.24.84-2,.87a43.36,43.36,0,0,0-6.33.73c-1.19.22-2.65.81-2.66,2a1.9,1.9,0,0,0,1.43,1.68,6.05,6.05,0,0,0,2.36.08,38,38,0,0,1,8.26.21,16.33,16.33,0,0,0-8.12,3.3,1.7,1.7,0,0,0-.53.57,1.21,1.21,0,0,0,.83,1.48h0a3.61,3.61,0,0,0,1.9-.1,41.68,41.68,0,0,1,8.33-1.08,20.17,20.17,0,0,0-4.68,3,3.38,3.38,0,0,0-1,1.25,1.36,1.36,0,0,0,.26,1.51,1.92,1.92,0,0,0,1.73.14c3.32-.9,6.26-3.06,9.67-3.56,1.78-.27,3.84-.16,5.08-1.47a5.33,5.33,0,0,0,1.08-2.23c.75-2.57,2.27-8,.72-10.51-.61-1-2.09-1.81-3-2.55A58,58,0,0,0,545.34,382.5Z" transform="translate(0 0)" fill="url(#linear-gradient-23)"/></svg>