<?xml version="1.0" encoding="utf-8"?>
<!-- Generator: Adobe Illustrator 22.0.1, SVG Export Plug-In . SVG Version: 6.00 Build 0)  -->
<svg version="1.1" id="Layer_1" xmlns="http://www.w3.org/2000/svg" xmlns:xlink="http://www.w3.org/1999/xlink" x="0px" y="0px"
	 viewBox="0 0 80.4 100" style="enable-background:new 0 0 80.4 100;" xml:space="preserve">
<title>Address-book-contact-bookmark</title>
<path d="M74.5,55.4h-1.2V1.8c0-1-0.8-1.8-1.8-1.8H1.8C0.8,0,0,0.8,0,1.8v96.4c0,1,0.8,1.8,1.8,1.8h69.6c1,0,1.8-0.8,1.8-1.8v-1.8
	h1.2c3.3,0,5.9-2.6,5.9-5.9v-4.3c0-1.5-0.6-3-1.7-4.1c1.1-1.1,1.7-2.6,1.7-4.1v-4.3c0-1.5-0.6-3-1.7-4.1c1.1-1.1,1.7-2.6,1.7-4.1
	v-4.3C80.4,58,77.7,55.4,74.5,55.4z M23.2,3.6h8.9v35l-3.2-3.2c-0.7-0.7-1.8-0.7-2.5,0l-3.2,3.2V3.6z M3.6,3.6h5.4v92.9H3.6V3.6z
	 M69.6,96.4H12.5V3.6h7.1v39.3c0,1,0.8,1.8,1.8,1.8c0.5,0,0.9-0.2,1.3-0.5l5-5l5,5c0.3,0.3,0.8,0.5,1.3,0.5c0.2,0,0.5,0,0.7-0.1
	c0.7-0.3,1.1-0.9,1.1-1.6V3.6h33.9V96.4z M74.5,58.9c1.3,0,2.3,1,2.3,2.3v4.3c0,1.3-1,2.3-2.3,2.3h-1.2v-8.9H74.5z M76.8,73.8V78
	c0,1.3-1,2.3-2.3,2.3h-1.2v-8.9h1.2C75.7,71.4,76.8,72.5,76.8,73.8z M76.8,90.5c0,1.3-1,2.3-2.3,2.3c0,0,0,0,0,0h-1.2v-8.9h1.2
	c1.3,0,2.3,1,2.3,2.3V90.5z"/>
<rect x="25" y="73.2" width="3.6" height="3.6"/>
<rect x="32.1" y="73.2" width="32.1" height="3.6"/>
<rect x="17.9" y="80.4" width="46.4" height="3.6"/>
<rect x="17.9" y="87.5" width="39.3" height="3.6"/>
</svg>
