<?xml version="1.0" encoding="utf-8"?>
<!-- Generator: Adobe Illustrator 22.0.1, SVG Export Plug-In . SVG Version: 6.00 Build 0)  -->
<svg version="1.1" id="Layer_1" xmlns="http://www.w3.org/2000/svg" xmlns:xlink="http://www.w3.org/1999/xlink" x="0px" y="0px"
	 viewBox="0 0 80.4 100" style="enable-background:new 0 0 80.4 100;" xml:space="preserve">
<title>Address-book-contact-bookmark</title>
<path d="M74.8,56h-1.7V1.3c0-0.7-0.6-1.3-1.3-1.3H1.4C0.7,0,0.1,0.6,0.1,1.3v97.4c0,0.7,0.6,1.3,1.3,1.3h70.3c0.7,0,1.3-0.6,1.3-1.3
	v-2.3h1.7c3.1,0,5.5-2.4,5.5-5.5v-4.3c0-1.4-0.6-2.8-1.6-3.8l-0.4-0.4l0.4-0.4c1-1,1.6-2.4,1.6-3.8v-4.3c0-1.4-0.6-2.8-1.6-3.8
	l-0.4-0.4l0.4-0.4c1-1,1.6-2.4,1.6-3.8v-4.3c0-1.4-0.5-2.7-1.4-3.7C77.7,56.6,76.3,56,74.8,56z M22.5,2.6h10v37.1l-4.1-4.1
	c-0.5-0.5-1.3-0.5-1.8,0l-4.1,4.1V2.6z M9.2,97.5H2.7V2.6h6.5V97.5z M70.5,97.4H11.7V2.6h8.2v40.2c0,0.7,0.6,1.3,1.3,1.3
	c0.3,0,0.6-0.1,1-0.4l5.4-5.4l5.4,5.4c0.2,0.2,0.6,0.4,1,0.4c0.1,0,0.4,0,0.5,0c0.5-0.2,0.8-0.7,0.8-1.2V2.6h35.3V97.4z M77.7,90.9
	c0,1.6-1.2,2.8-2.8,2.8h-1.7v-10h1.7c1.6,0,2.8,1.2,2.8,2.8V90.9z M77.7,78.3c0,1.6-1.2,2.8-2.8,2.8h-1.7v-10h1.7
	c1.5,0,2.8,1.4,2.8,2.9V78.3z M77.7,65.7c0,1.6-1.2,2.8-2.8,2.8h-1.7v-10h1.7c1.6,0,2.8,1.2,2.8,2.8V65.7z"/>
<rect x="25.4" y="73.9" width="2.6" height="2.6"/>
<rect x="32.5" y="73.9" width="31.4" height="2.6"/>
<rect x="18.2" y="81.2" width="45.9" height="2.6"/>
<rect x="18.2" y="88.4" width="38.7" height="2.6"/>
</svg>
