<?xml version="1.0" encoding="utf-8"?>
<!-- Generator: Adobe Illustrator 22.0.1, SVG Export Plug-In . SVG Version: 6.00 Build 0)  -->
<svg version="1.1" id="Layer_1" xmlns="http://www.w3.org/2000/svg" xmlns:xlink="http://www.w3.org/1999/xlink" x="0px" y="0px"
	 viewBox="0 0 75 100" style="enable-background:new 0 0 75 100;" xml:space="preserve">
<title>Document-file-paper-pen</title>
<path d="M73.7,0H6.4C5.7,0,5.2,0.5,5.2,1.2v7.3H1.3c0,0-0.1,0-0.1,0c-0.4,0-0.6,0.1-0.7,0.3C0.3,8.9,0.1,9.3,0.1,9.6v89.2
	c0,0.6,0.5,1.2,1.2,1.2h63.9c0.6,0,1.2-0.5,1.2-1.2v-3.8h7.3c0.6,0,1.2-0.5,1.2-1.2V1.2C74.9,0.5,74.4,0,73.7,0z M64.2,97.8H2.4v-87
	h48.2v12.3c0,0.6,0.5,1.2,1.2,1.2h12.3V97.8z M53,21.8v-9.4l9.4,9.4H53z M72.4,92.1v0.5H72h-5.6V23c0-0.3-0.2-0.7-0.4-0.9L52.6,8.7
	c-0.2-0.2-0.5-0.4-0.9-0.4H7.5V2.3h64.9V92.1z"/>
<rect x="8.5" y="16.9" width="2.3" height="2.3"/>
<rect x="8.5" y="23.5" width="2.3" height="2.3"/>
<rect x="15.3" y="32" width="2.3" height="2.3"/>
<rect x="22" y="32" width="36.1" height="2.3"/>
<rect x="8.5" y="38.7" width="49.5" height="2.3"/>
<rect x="8.5" y="45.5" width="42.7" height="2.3"/>
<rect x="15.3" y="75.8" width="2.3" height="2.3"/>
<rect x="22" y="75.8" width="36.1" height="2.3"/>
<rect x="8.5" y="82.5" width="49.5" height="2.3"/>
<rect x="8.5" y="89.2" width="42.7" height="2.3"/>
<path d="M9.7,69.7h18.5c0.6,0,1.2-0.5,1.2-1.2V55.1c0-0.6-0.5-1.2-1.2-1.2H9.7c-0.6,0-1.2,0.5-1.2,1.2v13.4
	C8.5,69.2,9.1,69.7,9.7,69.7z M10.9,56.3h16.2v11.1H10.9V56.3z"/>
<path d="M56.9,53.8H38.3c-0.6,0-1.2,0.5-1.2,1.2v13.4c0,0.6,0.5,1.2,1.2,1.2h18.5c0.6,0,1.2-0.5,1.2-1.2V55.1
	C58,54.4,57.5,53.8,56.9,53.8z M55.7,67.4H39.5V56.3h16.2V67.4z"/>
</svg>
