<?xml version="1.0" encoding="utf-8"?>
<!-- Generator: Adobe Illustrator 22.0.1, SVG Export Plug-In . SVG Version: 6.00 Build 0)  -->
<svg version="1.1" id="Layer_1" xmlns="http://www.w3.org/2000/svg" xmlns:xlink="http://www.w3.org/1999/xlink" x="0px" y="0px"
	 viewBox="0 0 75 100" style="enable-background:new 0 0 75 100;" xml:space="preserve">
<title>Document-file-paper-pen</title>
<g>
	<path d="M73.3,0H6.7C5.7,0,5,0.7,5,1.7v6.7H1.7C0.7,8.3,0,9.1,0,10v88.3c0,0.9,0.7,1.7,1.7,1.7H65c0.9,0,1.7-0.7,1.7-1.7V95h6.7
		c0.9,0,1.7-0.7,1.7-1.7V1.7C75,0.7,74.3,0,73.3,0z M3.3,96.7v-85H50v11.7c0,0.9,0.7,1.7,1.7,1.7h11.7v71.7H3.3z M53.3,14l7.6,7.6
		h-7.6V14z M71.7,91.7h-5V23.3c0-0.4-0.2-0.9-0.5-1.2L52.8,8.8c-0.3-0.3-0.7-0.5-1.2-0.5H8.3v-5h63.3V91.7z"/>
	<rect x="8.3" y="16.7" width="3.3" height="3.3"/>
	<rect x="8.3" y="23.3" width="3.3" height="3.3"/>
	<rect x="15" y="31.7" width="3.3" height="3.3"/>
	<rect x="21.7" y="31.7" width="36.7" height="3.3"/>
	<rect x="8.3" y="38.3" width="50" height="3.3"/>
	<rect x="8.3" y="45" width="43.3" height="3.3"/>
	<rect x="15" y="75" width="3.3" height="3.3"/>
	<rect x="21.7" y="75" width="36.7" height="3.3"/>
	<rect x="8.3" y="81.7" width="50" height="3.3"/>
	<rect x="8.3" y="88.3" width="43.3" height="3.3"/>
	<path d="M10,70h18.3c0.9,0,1.7-0.7,1.7-1.7V55c0-0.9-0.7-1.7-1.7-1.7H10c-0.9,0-1.7,0.7-1.7,1.7v13.3C8.3,69.3,9.1,70,10,70z
		 M11.7,56.7h15v10h-15V56.7z"/>
	<path d="M56.7,53.3H38.3c-0.9,0-1.7,0.7-1.7,1.7v13.3c0,0.9,0.7,1.7,1.7,1.7h18.3c0.9,0,1.7-0.7,1.7-1.7V55
		C58.3,54.1,57.6,53.3,56.7,53.3z M55,66.7H40v-10h15V66.7z"/>
</g>
</svg>
