<?xml version="1.0" encoding="utf-8"?>
<!-- Generator: Adobe Illustrator 22.0.1, SVG Export Plug-In . SVG Version: 6.00 Build 0)  -->
<svg version="1.1" id="Layer_1" xmlns="http://www.w3.org/2000/svg" xmlns:xlink="http://www.w3.org/1999/xlink" x="0px" y="0px"
	 viewBox="0 0 100 100" style="enable-background:new 0 0 100 100;" xml:space="preserve">
<title>004-icon-design</title>
<g>
	<polygon points="34,63.4 28,69.5 21.9,63.4 19.7,65.6 25.8,71.7 19.7,77.8 21.9,80 28,73.9 34,80 36.3,77.8 30.2,71.7 36.3,65.6 	
		"/>
	<rect x="64.1" y="26.6" width="15.6" height="3.1"/>
	<polygon points="15.6,25 18.8,25 18.8,18.8 25,18.8 25,15.6 18.8,15.6 18.8,9.4 15.6,9.4 15.6,15.6 9.4,15.6 9.4,18.8 15.6,18.8 	
		"/>
	<path d="M1.6,51.6h4.7c0.9,0,1.6-0.7,1.6-1.6s-0.7-1.6-1.6-1.6H3.1V3.1h45.3v3.1c0,0.9,0.7,1.6,1.6,1.6s1.6-0.7,1.6-1.6V1.6
		C51.6,0.7,50.9,0,50,0H1.6C0.7,0,0,0.7,0,1.6V50C0,50.9,0.7,51.6,1.6,51.6z"/>
	<path d="M62.5,87.5v-25h25c0.9,0,1.6-0.7,1.6-1.6V12.5c0-0.9-0.7-1.6-1.6-1.6H39.1c-0.9,0-1.6,0.7-1.6,1.6v25h-25
		c-0.9,0-1.6,0.7-1.6,1.6v48.4c0,0.9,0.7,1.6,1.6,1.6h48.4C61.8,89.1,62.5,88.4,62.5,87.5z M40.6,14.1h45.3v45.3H62.5V39.1
		c0-0.9-0.7-1.6-1.6-1.6H40.6V14.1z M40.6,40.6h18.8v18.8H40.6V40.6z M14.1,85.9V40.6h23.4v20.3c0,0.9,0.7,1.6,1.6,1.6h20.3v23.4
		H14.1z"/>
	<path d="M98.4,48.4h-4.7c-0.9,0-1.6,0.7-1.6,1.6s0.7,1.6,1.6,1.6h3.1v45.3H51.6v-3.1c0-0.9-0.7-1.6-1.6-1.6s-1.6,0.7-1.6,1.6v4.7
		c0,0.9,0.7,1.6,1.6,1.6h48.4c0.9,0,1.6-0.7,1.6-1.6V50C100,49.1,99.3,48.4,98.4,48.4z"/>
	<rect x="81.2" y="75" width="3.1" height="3.1"/>
	<rect x="75" y="81.2" width="15.6" height="3.1"/>
	<rect x="81.2" y="87.5" width="3.1" height="3.1"/>
	<rect x="90.6" width="3.1" height="3.1"/>
	<rect x="96.9" width="3.1" height="3.1"/>
	<rect x="96.9" y="6.2" width="3.1" height="3.1"/>
	<rect y="90.6" width="3.1" height="3.1"/>
	<rect y="96.9" width="3.1" height="3.1"/>
	<rect x="6.2" y="96.9" width="3.1" height="3.1"/>
</g>
</svg>
