<?xml version="1.0" encoding="UTF-8"?>
<svg width="465px" height="102px" viewBox="0 0 465 102" version="1.1" xmlns="http://www.w3.org/2000/svg" xmlns:xlink="http://www.w3.org/1999/xlink">
    <!-- Generator: Sketch 52.6 (67491) - http://www.bohemiancoding.com/sketch -->
    <title>graphite.</title>
    <desc>Created with Sketch.</desc>
    <g id="Page-1" stroke="none" stroke-width="1" fill="none" fill-rule="evenodd">
        <g id="Brand" transform="translate(-137.000000, -621.000000)" fill="#000000">
            <path d="M167.35,722.6 C162.549976,722.6 157.966689,722.26667 153.6,721.6 C149.233312,720.93333 145.850012,720.166671 143.45,719.3 L143.45,702.9 C150.516702,704.166673 156.849972,704.8 162.45,704.8 C166.250019,704.8 168.999992,704.216672 170.7,703.05 C172.400009,701.883327 173.25,699.700016 173.25,696.5 L173.25,692.2 C171.583325,694.333344 169.433346,696.233325 166.8,697.9 C164.166653,699.566675 161.150017,700.4 157.75,700.4 C150.949966,700.4 145.83335,697.866692 142.4,692.8 C138.966649,687.733308 137.25,680.53338 137.25,671.2 C137.25,661.86662 138.966649,654.666692 142.4,649.6 C145.83335,644.533308 150.949966,642 157.75,642 C161.150017,642 164.166653,642.833325 166.8,644.5 C169.433346,646.166675 171.583325,648.066656 173.25,650.2 L173.25,643.4 L200.65,643.4 L200.65,659.8 L196.25,659.8 L196.25,695 C196.25,704.666715 193.850024,711.683311 189.05,716.05 C184.249976,720.416688 177.016715,722.6 167.35,722.6 Z M167.45,682.6 C169.383343,682.6 170.833328,682.083338 171.8,681.05 C172.766672,680.016662 173.25,678.400011 173.25,676.2 L173.25,666.2 C173.25,663.999989 172.766672,662.383339 171.8,661.35 C170.833328,660.316662 169.383343,659.8 167.45,659.8 C165.516657,659.8 164.066671,660.316662 163.1,661.35 C162.133329,662.383339 161.65,663.999989 161.65,666.2 L161.65,676.2 C161.65,678.400011 162.133329,680.016662 163.1,681.05 C164.066671,682.083338 165.516657,682.6 167.45,682.6 Z M245.15,642 C246.48334,642 247.749994,642.133332 248.95,642.4 C250.150006,642.666668 251.149996,642.999998 251.95,643.4 L251.95,662.5 C249.216653,661.366661 246.283349,660.8 243.15,660.8 C238.949979,660.8 235.716678,661.899989 233.45,664.1 C231.183322,666.300011 230.05,669.566645 230.05,673.9 L230.05,682.6 L239.05,682.6 L239.05,699 L202.65,699 L202.65,682.6 L207.05,682.6 L207.05,659.8 L202.65,659.8 L202.65,643.4 L230.05,643.4 L230.05,650.7 C231.916676,647.899986 234.049988,645.750008 236.45,644.25 C238.850012,642.749992 241.749983,642 245.15,642 Z M312.45,682.6 L312.45,699 L286.05,699 L286.05,692.2 C284.583326,694.333344 282.533346,696.233325 279.9,697.9 C277.266654,699.566675 274.050019,700.4 270.25,700.4 C265.249975,700.4 261.316681,699.06668 258.45,696.4 C255.583319,693.73332 254.15,689.966691 254.15,685.1 C254.15,672.499937 264.849893,666.033335 286.25,665.7 C286.049999,663.433322 285.183341,661.883338 283.65,661.05 C282.116659,660.216662 279.516685,659.8 275.85,659.8 C272.849985,659.8 269.633351,660.116663 266.2,660.75 C262.76665,661.383337 259.616681,662.233328 256.75,663.3 L256.75,644.9 C260.283351,644.033329 264.116646,643.333336 268.25,642.8 C272.383354,642.266664 276.416647,642 280.35,642 C290.283383,642 297.383312,643.799982 301.65,647.4 C305.916688,651.000018 308.05,656.566629 308.05,664.1 L308.05,682.6 L312.45,682.6 Z M286.05,675.6 C283.049985,675.6 280.733342,675.999996 279.1,676.8 C277.466658,677.600004 276.65,678.933324 276.65,680.8 C276.65,681.933339 276.999997,682.849996 277.7,683.55 C278.400004,684.250004 279.383327,684.6 280.65,684.6 C282.383342,684.6 283.716662,683.866674 284.65,682.4 C285.583338,680.933326 286.05,678.86668 286.05,676.2 L286.05,675.6 Z M314.25,704.8 L318.65,704.8 L318.65,659.8 L314.25,659.8 L314.25,643.4 L341.65,643.4 L341.65,650.2 C343.316675,648.066656 345.466654,646.166675 348.1,644.5 C350.733347,642.833325 353.749983,642 357.15,642 C363.950034,642 369.06665,644.533308 372.5,649.6 C375.933351,654.666692 377.65,661.86662 377.65,671.2 C377.65,680.53338 375.933351,687.733308 372.5,692.8 C369.06665,697.866692 363.950034,700.4 357.15,700.4 C353.749983,700.4 350.733347,699.566675 348.1,697.9 C345.466654,696.233325 343.316675,694.333344 341.65,692.2 L341.65,704.8 L348.55,704.8 L348.55,721.2 L314.25,721.2 L314.25,704.8 Z M347.45,682.6 C349.383343,682.6 350.833328,682.083338 351.8,681.05 C352.766672,680.016662 353.25,678.400011 353.25,676.2 L353.25,666.2 C353.25,663.999989 352.766672,662.383339 351.8,661.35 C350.833328,660.316662 349.383343,659.8 347.45,659.8 C345.516657,659.8 344.066671,660.316662 343.1,661.35 C342.133329,662.383339 341.65,663.999989 341.65,666.2 L341.65,676.2 C341.65,678.400011 342.133329,680.016662 343.1,681.05 C344.066671,682.083338 345.516657,682.6 347.45,682.6 Z M445.85,682.6 L445.85,699 L414.25,699 L414.25,682.6 L418.45,682.6 L418.45,666.2 C418.45,663.999989 417.983338,662.383339 417.05,661.35 C416.116662,660.316662 414.716676,659.8 412.85,659.8 C408.84998,659.8 406.85,661.933312 406.85,666.2 L406.85,682.6 L411.05,682.6 L411.05,699 L379.45,699 L379.45,682.6 L383.85,682.6 L383.85,637.6 L379.45,637.6 L379.45,621.2 L406.85,621.2 L406.85,651.2 C409.316679,648.133318 411.983319,645.833341 414.85,644.3 C417.716681,642.766659 421.049981,642 424.85,642 C430.383361,642 434.53332,643.733316 437.3,647.2 C440.066681,650.666684 441.45,655.433303 441.45,661.5 L441.45,682.6 L445.85,682.6 Z M452.85,637.9 L452.85,621.2 L473.25,621.2 L473.25,637.9 L452.85,637.9 Z M448.05,699 L448.05,682.6 L452.45,682.6 L452.45,659.8 L448.05,659.8 L448.05,643.4 L475.45,643.4 L475.45,682.6 L479.85,682.6 L479.85,699 L448.05,699 Z M506.35,700.4 C499.283298,700.4 493.966685,698.68335 490.4,695.25 C486.833316,691.81665 485.05,686.033374 485.05,677.9 L485.05,659.8 L480.65,659.8 L480.65,643.4 C483.183346,643.4 485.083327,642.750007 486.35,641.45 C487.616673,640.149993 488.25,638.366678 488.25,636.1 L488.25,631.6 L509.45,631.6 L509.45,643.4 L522.95,643.4 L522.95,659.8 L509.45,659.8 L509.45,676.2 C509.45,678.400011 509.933329,680.016662 510.9,681.05 C511.866672,682.083338 513.316657,682.6 515.25,682.6 C517.783346,682.6 520.549985,682.300003 523.55,681.7 L523.55,697.4 C521.683324,698.133337 519.166683,698.816664 516,699.45 C512.833318,700.083336 509.616683,700.4 506.35,700.4 Z M555.55,700.4 C546.083286,700.4 538.68336,697.916691 533.35,692.95 C528.01664,687.983309 525.35,680.733381 525.35,671.2 C525.35,661.666619 528.01664,654.416691 533.35,649.45 C538.68336,644.483309 546.083286,642 555.55,642 C564.950047,642 571.733313,644.449975 575.9,649.35 C580.066688,654.250024 582.15,660.333297 582.15,667.6 L582.15,674.8 L549.75,674.8 L549.75,675.4 C549.75,677.866679 550.483326,679.683328 551.95,680.85 C553.416674,682.016673 555.849983,682.6 559.25,682.6 C563.316687,682.6 567.183315,682.300003 570.85,681.7 C574.516685,681.099997 577.716653,680.333338 580.45,679.4 L580.45,695.4 C578.116655,696.666673 574.700023,697.816662 570.2,698.85 C565.699978,699.883339 560.816693,700.4 555.55,700.4 Z M561.35,663.8 L561.35,662.6 C561.35,660.333322 560.866672,658.700005 559.9,657.7 C558.933329,656.699995 557.483343,656.2 555.55,656.2 C553.616657,656.2 552.166672,656.716661 551.2,657.75 C550.233329,658.783339 549.75,660.399989 549.75,662.6 L549.75,663.8 L561.35,663.8 Z M586.35,699 L586.35,682.6 L601.95,682.6 L601.95,699 L586.35,699 Z" id="graphite."></path>
        </g>
    </g>
</svg>