<?xml version="1.0" encoding="UTF-8"?>
<svg width="144px" height="144px" viewBox="0 0 144 144" version="1.1" xmlns="http://www.w3.org/2000/svg" xmlns:xlink="http://www.w3.org/1999/xlink">
    <!-- Generator: Sketch 52.6 (67491) - http://www.bohemiancoding.com/sketch -->
    <title>Group</title>
    <desc>Created with Sketch.</desc>
    <g id="Page-1" stroke="none" stroke-width="1" fill="none" fill-rule="evenodd">
        <g id="Brand" transform="translate(-284.000000, -796.000000)">
            <g id="Group" transform="translate(284.000000, 782.000000)">
                <circle id="Oval" fill="#000000" cx="72" cy="86" r="72"></circle>
                <path d="M60.7,127.6 C55.899976,127.6 51.3166885,127.26667 46.95,126.6 C42.5833115,125.93333 39.200012,125.166671 36.8,124.3 L36.8,107.9 C43.866702,109.166673 50.199972,109.8 55.8,109.8 C59.600019,109.8 62.3499915,109.216672 64.05,108.05 C65.7500085,106.883328 66.6,104.700016 66.6,101.5 L66.6,97.2 C64.933325,99.333344 62.7833465,101.233325 60.15,102.9 C57.5166535,104.566675 54.500017,105.4 51.1,105.4 C44.299966,105.4 39.1833505,102.866692 35.75,97.8 C32.3166495,92.733308 30.6,85.53338 30.6,76.2 C30.6,66.86662 32.3166495,59.666692 35.75,54.6 C39.1833505,49.533308 44.299966,47 51.1,47 C54.500017,47 57.5166535,47.833325 60.15,49.5 C62.7833465,51.166675 64.933325,53.066656 66.6,55.2 L66.6,48.4 L94,48.4 L94,64.8 L89.6,64.8 L89.6,100 C89.6,109.666715 87.200024,116.683312 82.4,121.05 C77.599976,125.416689 70.366715,127.6 60.7,127.6 Z M60.8,87.6 C62.733343,87.6 64.1833285,87.0833385 65.15,86.05 C66.1166715,85.0166615 66.6,83.400011 66.6,81.2 L66.6,71.2 C66.6,68.999989 66.1166715,67.3833385 65.15,66.35 C64.1833285,65.3166615 62.733343,64.8 60.8,64.8 C58.866657,64.8 57.4166715,65.3166615 56.45,66.35 C55.4833285,67.3833385 55,68.999989 55,71.2 L55,81.2 C55,83.400011 55.4833285,85.0166615 56.45,86.05 C57.4166715,87.0833385 58.866657,87.6 60.8,87.6 Z M98,104 L98,87.6 L113.6,87.6 L113.6,104 L98,104 Z" id="g." fill="#FFFFFF"></path>
            </g>
        </g>
    </g>
</svg>