<?xml version="1.0" encoding="utf-8"?>
<!-- Generator: Adobe Illustrator 22.0.1, SVG Export Plug-In . SVG Version: 6.00 Build 0)  -->
<svg version="1.1" id="Layer_1" xmlns="http://www.w3.org/2000/svg" xmlns:xlink="http://www.w3.org/1999/xlink" x="0px" y="0px"
	 viewBox="0 0 100 100" style="enable-background:new 0 0 100 100;" xml:space="preserve">
<title>004-icon-design</title>
<polygon points="35.4,65.7 33.8,64.2 27.8,70.4 21.6,64.2 20.1,65.7 26.3,71.9 20.1,78.1 21.6,79.6 27.8,73.4 33.8,79.6 35.4,78 
	29.3,71.9 "/>
<rect x="64.7" y="26.9" width="14.7" height="2.1"/>
<polygon points="15.8,24.3 18,24.3 18,18 24.2,18 24.2,15.8 18,15.8 18,9.5 15.8,9.5 15.8,15.8 9.5,15.8 9.5,18 15.8,18 "/>
<path d="M1.1,51.1h4.7C6.5,51.1,7,50.6,7,50c0-0.6-0.5-1.1-1.1-1.1H2.1V2.2h46.8v3.6c0,0.6,0.5,1.1,1.1,1.1s1.1-0.5,1.1-1.1V1.2
	C51.1,0.5,50.6,0,50,0H1.1C0.5,0,0,0.5,0,1.2V50C0,50.6,0.5,51.1,1.1,51.1z"/>
<path d="M61,88.9c0.6,0,1.1-0.5,1.1-1.1V62.1h25.8c0.6,0,1.1-0.5,1.1-1.1V12.2c0-0.6-0.5-1.1-1.1-1.1H39c-0.6,0-1.1,0.5-1.1,1.1
	v25.7H12.1c-0.6,0-1.1,0.5-1.1,1.1v48.8c0,0.6,0.5,1.1,1.1,1.1H61z M40,13.3h46.8V60H62.1V39c0-0.6-0.5-1.1-1.1-1.1H40V13.3z M40,40
	h20v20H40V40z M13.2,40h24.6v21c0,0.6,0.5,1.1,1.1,1.1h21v24.6H13.2V40z"/>
<path d="M98.9,48.9h-4.7c-0.6,0-1.1,0.5-1.1,1.1c0,0.6,0.5,1.1,1.1,1.1h3.6v46.7H51.1v-3.6c0-0.6-0.5-1.1-1.1-1.1s-1.1,0.5-1.1,1.1
	v4.7c0,0.6,0.5,1.1,1.1,1.1h48.9c0.6,0,1.1-0.5,1.1-1.1V50C100,49.4,99.5,48.9,98.9,48.9z"/>
<rect x="82" y="75.7" width="2.1" height="2.1"/>
<rect x="75.8" y="82" width="14.7" height="2.1"/>
<rect x="82" y="88.3" width="2.1" height="2.1"/>
<rect x="91.5" y="0" width="2.1" height="2.1"/>
<rect x="97.9" y="0" width="2.1" height="2.1"/>
<rect x="97.9" y="6.3" width="2.1" height="2.1"/>
<rect y="91.5" width="2.1" height="2.1"/>
<rect y="97.8" width="2.1" height="2.1"/>
<rect x="6.3" y="97.8" width="2.1" height="2.1"/>
</svg>
